<?xml version="1.0" encoding="UTF-8"?>
<svg viewBox="0 0 895.78223 668.29327" xmlns="http://www.w3.org/2000/svg">
 <defs>
  <filter id="h">
   <feGaussianBlur stdDeviation="2.42065"/>
  </filter>
  <filter id="b">
   <feGaussianBlur stdDeviation="11.73716"/>
  </filter>
  <filter id="l">
   <feGaussianBlur stdDeviation="1.90978"/>
  </filter>
  <filter id="f">
   <feGaussianBlur stdDeviation="8.67064"/>
  </filter>
  <filter id="k" x="-.02303" y="-.11164" width="1.0461" height="1.2233">
   <feGaussianBlur stdDeviation="9.72503"/>
  </filter>
  <filter id="j" x="-.02357" y="-.29308" width="1.0472" height="1.5862">
   <feGaussianBlur stdDeviation="18.40143"/>
  </filter>
  <filter id="i" x="-.0182" y="-.16183" width="1.0364" height="1.3237">
   <feGaussianBlur stdDeviation="14.87046"/>
  </filter>
  <filter id="g" x="-.01911" y="-.11384" width="1.0382" height="1.2277">
   <feGaussianBlur stdDeviation="16.16473"/>
  </filter>
  <filter id="e" x="-.04913" y="-.12735" width="1.0983" height="1.2547">
   <feGaussianBlur stdDeviation="9.29525"/>
  </filter>
  <filter id="d" x="-.04074" y="-.16637" width="1.0815" height="1.3328">
   <feGaussianBlur stdDeviation="10.93208"/>
  </filter>
  <filter id="c" x="-.06378" y="-.27623" width="1.1276" height="1.5524">
   <feGaussianBlur stdDeviation="12.35296"/>
  </filter>
  <linearGradient id="a" x1="-206.76" x2="1822.3" gradientUnits="userSpaceOnUse">
   <stop stop-color="#00001f" offset="0"/>
   <stop stop-color="#00001f" stop-opacity="0" offset="1"/>
  </linearGradient>
 </defs>
 <g transform="translate(92.914 139.72)" fill-rule="evenodd">
  <path d="m-60.03-63.822c2.762 9.9472 0.24035 24.392-1.8749 36.407-2.3849 13.547-1.1718 27.212-1.1718 40.865 0 16.333-4.8178 32.937-9.14 48.543-3.6481 13.172-4.6685 27.2-7.0308 40.618-1.9658 11.166-2.2132 20.174-1.1718 31.454 1.015 10.995 4.1367 21.542 7.4995 31.949 2.3426 7.25 4.8336 14.389 7.2652 21.547 2.1999 6.4762 1.986 14.476 3.5154 21.3 1.3258 5.9155 3.416 11.944 4.9216 17.585 1.6422 6.1528 2.5157 10.079 5.3903 15.851 3.2664 6.5587 15.086 10.359 21.092 13.374 14.331 7.1938 29.538 9.5806 45.232 11.145 12.546 1.2508 24.834 2.2949 37.263 4.2104 11.482 1.7695 23.82-1.7122 35.623-0.49534 11.556 1.1914 24.043 5.6038 35.388 8.1731 11.254 2.5486 21.761 3.4716 33.279 3.715 10.658 0.22527 21.023 2.4857 31.639 2.7244 14.284 0.32116 28.863 0.99067 43.122 0.99067 16.816 0 33.343-1.788 50.153-0.74301 16.76 1.0418 33.754 5.5908 50.622 7.1824 20.133 1.8997 40.071-0.74301 60.231-0.74301 17.634 0 36.123 4.7057 54.372 4.7057 22.051 0 43.84-3.8426 65.855-1.9814 17.173 1.4518 35.157-1.4674 52.028-4.2104 14.997-2.4383 29.186-10.161 43.122-15.851 8.2447-3.3664 15.566 0.17686 23.436 3.2197 8.295 3.2071 18.476 4.8002 27.186 7.4301 16.281 4.916 35.305 3.7753 52.028 2.972 12.268-0.5893 24.322-1.486 36.56-1.486 6.835 0 13.473 2.4767 20.389 2.4767 8.3049 0 15.727-6.827 22.264-11.145 13.61-100.38-13.177-179.2-14.593-274.93 7.367-39.022 37.006-82.588-2.7501-108.46-12.865-3.1619-28.226-1.6781-41.247 0-18.956 2.443-37.355 7.2018-56.012 11.145-15.803 3.3401-31.012 8.3209-46.403 13.126-18.462 5.7644-38.364 7.4732-57.418 10.402-17.504 2.6906-35.327 1.8912-52.965 1.486-18.395-0.4226-37.428-3.8053-55.778-5.4487-21.769-1.9496-43.157-1.4879-64.918 0.24767-22.321 1.7803-44.647 2.1486-67.027 1.7337-17.769-0.32944-35.785-0.99737-53.434-2.7244-19.238-1.8825-38.607-1.2103-57.887-2.229-17.445-0.9218-34.452-0.53778-51.794-3.2197-20.966-3.2424-42.438-3.7236-63.512-6.4394-17.857-2.3013-34.744-4.6819-52.731-3.2197-15.48 1.2584-30.535 2.675-45.935 4.9534-11.255 1.6652-21.416 4.7721-31.873 8.9161-5.2182 2.068-11.42 2.8913-16.64 4.2104-3.7728 0.95343-14.079 7.6686-16.171 8.6684z" fill="#b7c8c4" opacity=".91667" stroke="#000" stroke-width=".42965"/>
  <path transform="matrix(.42965 0 0 .42965 -52.993 -79.69)" d="m-26.141 447.93c43.426 9.5608 87.134 17.64 130.37 28.246 50.068 12.283 100.64 15.789 147.82 37.469 37.29 17.134 70.74 33.481 110.73 43.233 34.817 8.4911 76.518 1.9761 112.37 5.7644 27.947 2.9534 88.394 6.3171 115.89 0.37379 26.932-5.8216 37.19 26.696 60.99 40.725 62.64 36.925 62.639-44.046 92.681-50.094 41.218-8.297 89.803-2.5404 131.51-8.5896 48.421-7.0234 84.648-3.3802 133.54-6.5435 36.983-2.3928 89.568-102.63 105.22-69.255 30.859 65.792 75.241 1.9582 111.82 1.1529 39.237-0.86386 78.592 0.18879 117.82 1.1529 35.457 0.87142-2.7891 59.885 32.408 64.018 35.44 4.1614 143.65-51.543 179.23-50.759 33.341 0.73406 65.138-4.0407 98.184-8.0702 32.569-3.9714 63.708-12.758 96.002-18.446 26.311-4.6342 51.481-11.157 76.91-19.023 18.734-5.7945 35.624-14.648 52.364-24.211 12.682-7.2441 22.842-15.035 36.546-20.752 10.467-4.3664 20.989-8.4482 31.637-12.105 43.622 92.978 28.432 225.7 22.91 326.84-2.1589 27.949 0.1474 53.488 6.0001 80.702 14.864 30.702 9.988 69.667-28.91 71.479-10.266 0.23585-22.789-7.3206-32.182-10.952-14.629-5.656-31.584-8.5707-46.91-13.835-14.293-4.909-31.512-5.401-46.364-7.4937-24.215-3.412-35.457 23.115-68.728-6.3408-11.565-10.239-24.956 19.696-47.455-11.529-12.244-16.993-19.655 26.172-40.391 26.67-23.817 0.57203-63.294-28.033-85.066-38.199-14.446-6.7455-24.324-0.31299-37.563-7.488-18.374-9.9577-59.679-13.529-78.621-9.8053-33.476 6.5818-63.764 14.408-98.183 16.14-42.616 2.1446-85.424-9.5404-127.64-13.258-40.563-3.5722-83.633 6.2336-123.82 10.952-55.052 6.4643-112.43-2.9258-168-0.57644-50.338 2.1279-99.022-0.35857-148.91 7.4937-50.527 7.9526-97.498 8.9202-147.82-0.57644-47.094-8.8873-37.226 16.165-85.145 13.127-46.468-2.9464-138.72 4.035-184.24 13.447-39.592 8.1861-85.689-19.996-126.08-16.774-32.627 2.6023-69.47-10.516-102.55-12.105-32.581-1.5651-62.697-10.335-95.456-8.6466-18.757 0.96693-27.347-5.8161-42.001-16.14-17.687-12.461-27.322-31.818-37.637-50.15-17.732-31.515-16.909-81.793-16.909-116.44 0-35.044 77.004-45.823 50.841-69.405-86.838-33.44-129.19-94.302-37.205-91.422z" fill="#687a42" filter="url(#f)" opacity=".85648" stroke="#000"/>
  <path transform="matrix(.42965 0 0 .42965 -52.993 -79.69)" d="m477.77 132.49c-10.618 10.061-43.884-16.93-70.064-16.93-21.974 0-27.364 35.887-45.259 6.9707-24.191-39.091-70.262 10.779-80.927-11.41-29.116-60.579-91.512-21.06-92.158 15.023-0.26421 14.766 33.776 55.113 63.093 56.312 44.758 1.831 67.178-9.8461 77.402-12.402 22.15-5.5376 31.139-17.271 31.139 15.57 0 22.684 43.24 13.412 54.494 7.7848 4.7848-2.3924 2.5949-10.38 3.8924-15.57 3.4038-13.615 9.7392 31.628 23.355 35.032 25.487 6.3716 25.554 3.7695 54.494-23.355 22.208-20.815 18.831 11.416 41.099 0.08922 34.787-17.694 9.5941-34.562 25.072-36.482 34.917-4.3305 12.388 24.349 46.709 36.392 14.409 5.0562 47.611-24.715 70.788-24.715 27.696 0 47.434 10.481 73.231 16.93 33.165 8.2913 161.95-60.833-2.8666-57.947-2.1031 0.03684-64.803 1.6558-71.089-0.43963-26.072-8.6906-39.95 5.3255-73.956-11.677-26.352-13.176-35.697-16.235-58.386-38.924-21.378-21.378-41.364-18.803-58.386 3.8924-14.733 19.645 16.883 27.294-11.677 55.855z" fill="#d7e3f4" fill-opacity=".73889" filter="url(#d)"/>
  <path transform="matrix(.42965 0 0 .42965 -52.993 -79.69)" d="m1281.1 199.15c-19.757 13.52-33.032-14.212-52.242-28.787-22.426-60.579-115.44 3.2878-115.93 39.371-0.2035 14.766 26.016 55.113 48.596 56.312 34.474 1.831 25.522-39.813 33.397-42.369 17.061-5.5376 50.206 12.696 50.206 45.537 56.498 17.601 22.852-17.204 62.96 27.247 19.631 6.3716 19.682 3.7695 41.973-23.355 17.105-20.815 14.504 11.416 31.656 0.08922 26.794-17.694 14.882 12.261 26.803 10.342 26.894-4.3305 2.0498-22.474 28.485-10.431 11.098 5.0562 36.672-24.715 54.524-24.715 21.332 0 36.535 10.481 56.405 16.93 25.545 8.2913 17.988-23.375 17.988-46.709 0-2.1034-70.11-9.5819-74.952-11.677-20.081-8.6906-20.388-26.314-62.582-26.661-38.598-0.3321-12.512-25.6-29.988-48.289-16.466-21.378-41.225 5.5448-54.336 28.241-55.87-52.393-36.205 25.084-62.959 38.924z" fill="#d7e3f4" fill-opacity=".73889" filter="url(#e)"/>
  <path transform="matrix(.42965 0 0 .42965 -52.993 -79.69)" d="m682.39 353.1c-19.757 9.8177-33.032-10.32-52.242-20.904-13.92-40.088-39.33 37.291-115.93 28.589-14.59-1.6573 39.126 19.619 61.707 20.49 34.474 1.3296 12.411-8.5097 20.286-10.366 17.061-4.0211 50.206 9.2192 50.206 33.066 56.498 12.781 22.852-42.949 62.96-10.671 19.631 4.6267 19.682 33.194 41.973 13.498 17.105-15.114 14.504 8.2895 31.656 0.06478 42.348 18.513 63.276 18.686 109.81-18.012 21.332 0 21.552-37.34 41.421-32.657 25.545 6.0207 70.431-28.211 17.988-33.918-1.5184-0.16523-55.126 37.993-59.968 36.471-20.081-6.3106-20.388-19.108-62.582-19.36-38.598-0.24115-34.987 48.836-52.463 32.361-16.466-15.523-18.75-63.399-31.861-46.919-55.87-38.045-36.205 18.215-62.959 28.265z" fill="#d7e3f4" fill-opacity=".73889" filter="url(#c)"/>
 </g>
 <g transform="translate(92.914 139.72)" fill-rule="evenodd">
  <path d="m541.93 193.34 17.327 12.779-0.10423 53.802-16.798-0.01639-0.4254-66.565z" fill="#d35f5f"/>
  <g transform="matrix(.37054 0 0 .39128 122.3 -154.92)">
   <path d="m1115.9 992.24h27.605c0.0946-11.245-0.5366-25.196-0.5871-30.015l-3.5461-19.312-17.509-0.2682-4.4327 22.262h-1.5515l0.0219 27.333z" fill="#0ff7e2" fill-opacity=".56122"/>
   <g transform="translate(17.264 291.33)" fill="#65563b">
    <g transform="matrix(1 0 0 1.1752 4.267 -110.35)">
     <path d="m1099.6 634.94 2.8922 17.353h21.981l4.0491-17.353-28.922-1e-5z"/>
     <path d="m1125.1 651.72 5.7844 21.981h4.6275l1.1569-22.559-9.2759-9.018-2.2929 9.5964z"/>
     <path d="m1101.8 653.58-5.7844 21.981h-4.6275l-0.8832 0.1503-2.2167-22.259 11.776-10.863 1.7353 10.99z"/>
     <path d="m1100.3 657.7 17.605 0.23865 3.3454 14.497 0.1606 23.014 7.0879 0.23758-0.4002-22.056 2.5471-0.07919-5.5715-21.268-23.339 0.0792-1.4351 5.3371z"/>
     <path d="m1128.2 673.92 3.827 0.31892-1.7059 19.037-4.0828-0.33355 1.9617-19.023z"/>
     <path d="m1089.8 675.91 4.4897 0.31892 0.5941 17.502-4.2508 0.0674-0.833-17.888z"/>
    </g>
    <path d="m1097.5 707.7 36.211 0.03203 0.1767-6.5357-36.211-0.17664-0.1766 6.6803z"/>
    <path d="m1102.4 707.74h4.8349v3.2345h-4.8349z"/>
    <path d="m1124.9 707.74h4.0911v3.2345h-4.0911z"/>
    <path d="m1101.8 708.01h4.8349v3.2345h-4.8349z"/>
   </g>
   <g transform="translate(18.069 291.03)">
    <g transform="matrix(1 0 0 1.1752 4.267 -110.35)">
     <path d="m1099.6 634.94 2.8922 17.353h21.981l4.0491-17.353-28.922-1e-5z" fill="#d1b782"/>
     <path d="m1125.1 651.72 5.7844 21.981h4.6275l1.1569-22.559-9.2759-9.018-2.2929 9.5964z" fill="#d1b782"/>
     <path d="m1101.8 653.58-5.7844 21.981h-4.6275l-0.8832 0.1503-2.2167-22.259 11.776-10.863 1.7353 10.99z" fill="#d1b782"/>
     <path d="m1100.3 657.7 17.605 0.23865 3.3454 14.497 0.1606 23.014 7.0879 0.23758-0.4002-22.056 2.5471-0.07919-5.5715-21.268-23.339 0.0792-1.4351 5.3371z" fill="#554031"/>
     <path d="m1128.2 673.92 3.827 0.31892-1.7059 19.037-4.0828-0.33355 1.9617-19.023z" fill="#d1b782"/>
     <path d="m1089.8 675.91 4.4897 0.31892 0.5941 17.502-4.2508 0.0674-0.833-17.888z" fill="#d1b782"/>
    </g>
    <path d="m1097.5 707.7 36.211 0.03203 0.1767-6.5357-36.211-0.17664-0.1766 6.6803z" fill="#d1b782"/>
    <path d="m1102.4 707.74h4.8349v3.2345h-4.8349z" fill="#d1b782"/>
    <path d="m1124.9 707.74h4.0911v3.2345h-4.0911z" fill="#d1b782"/>
   </g>
  </g>
  <path d="m537.38 191.48 21.129 16.115 22.203 0.35812-42.974-22.203-0.35811 5.7298z" fill="#47280c"/>
  <path d="m585.82 205.85c-1.3952 2.3404-4.0393 2.6103-6.9151 2.1457-0.63263-1.5584-2.4492-2.7155-4.7051-2.5228-3.032-1.914-5.6292-3.3931-7.3811-4.671 0.40766-2.3756-2.1688-2.4876-2.9552-1.5073l-33.139-16.658-0.44233-4.9515 55.538 28.165z" fill="#7d4d2c"/>
  <path d="m548.31 199.17c-1.1027 2.4992 1.1064 2.4486 3.874 2.5662l14.311-0.3782c-1.288-0.42922-2.1519-0.92443-2.7648-2.0194-0.26634-0.47581-1.5826-0.75157-2.1548-1.2382l-13.266 1.0697z" fill="#3d2110"/>
  <path d="m564.63311,197.01308c-.60555.09778-.89467.43083-.89467,1.56564 0,.87719.21939,1.22584.67099,1.67748 .35894.35892 1.08776.70349 1.56566.89466 1.12436.44974.84813-.13063 1.23018-.89466 .2761-.55222.1118-1.60631.1118-2.23664 0-.66522-1.52656-.9092-2.01297-1.00648-.2193-.04387-.44731,0-.67099,0z" fill="#914a10"/>
  <path d="m336.55 219.25h31.539l-0.932 62.866-30.933-1.502 0.3261-61.364z" fill="#412512"/>
  <path d="m340.52 219.24 0.16924 61.478" fill="#2b1100" stroke="#391914" stroke-width=".43246"/>
  <path d="m345.5 221.03v59.693" fill="#2b1100" stroke="#391914" stroke-width=".42965"/>
  <path d="m350.66 219.25v62.273" fill="#2b1100" stroke="#391914" stroke-width=".42965"/>
  <path d="m356 219.25-0.17199 61.929" fill="#2b1100" stroke="#391914" stroke-width=".42965"/>
  <path d="m361.5 221.03v61.069" fill="#2b1100" stroke="#391914" stroke-width=".42965"/>
  <path d="m191.74 193.18 13.709-0.67699 107.6-4.7083-0.52632 77.98h-121.12l0.33849-72.595z" fill="#782121"/>
  <path d="m155.45 195.5c1.5081 2.7888 4.2715 3.0451 7.2597 2.4085 0.62418-1.8982 2.4922-3.3429 4.8489-3.1698l44.815-28.715 0.34862-5.9897-57.273 35.466z" fill="#3f2716"/>
  <path d="m444.45 270.86 98.374-3.4902-1.8232-135.35 0.41831-2.5098-16.819-18.461-46.807-2.202-32.699 17.131-0.64405 144.88z" fill="#f55"/>
  <path transform="matrix(.42965 0 0 .42965 -52.993 -79.69)" d="m1192 461.38 105.62 6.2558 85.178 55.998-1.1187-39.861-30.818-37.245-105.5-12.2-53.36 27.052z" fill="#952727" filter="url(#l)" opacity=".46296"/>
  <path d="m312.35 188.88-0.57264 76.893h15.396l-0.32245-64.322 39.714-23.383-0.47872-18.909-53.736 29.722z" fill="#502222"/>
  <path d="m386.16 274.46 40.688-6.0138-1.5059-83.979-39.712 20.502 0.52963 69.491z" fill="#d35f5f"/>
  <path d="m494.35 128.11-2.6589 2.1524 0.03214 0.75589 0.98455-0.31558 0.6633 11.547-1.373 0.2851c0.50527 0.31061-3.2246 1.0447-2.7891 1.466 8.3667-0.52059 15.627 2.3045 20.519 8.5003 12.293 15.569 9.1189 36.746 9.5339 36.745 1.4445 0.07559 1.2265 0.28652 3.4806-0.02323 1.8955-41.487-23.849-46.968-23.6-46.975l-0.74089-14.138h-4.0516z" fill="#6c6753"/>
  <path d="m326.71 205.3 59-0.28095 0.67017 70.263-19.462 0.68154 0.81059-55.632 2.95-0.14047v-12.034l-39.848 0.28096-0.32786 11.753h3.2309l-0.14049 45.587h-6.8833v-60.477z" fill="#782121"/>
  <path d="m359.68 133.09-0.15145 20.095 6.3854 0.34974-0.04288 24.658 59.156-1.8927 1.0893 92.326 19.864 2.3917 0.20335-145.48-86.504 7.5484z" fill="#782121"/>
  <path d="m405.49 164.8-6.9454 0.0813-0.35188-12.116 7-0.38946 0.29724 12.424z" fill="#500" fill-opacity=".96939"/>
  <path d="m405.26 164.67-5.2884 0.02686-0.07038-9.1321 5.0566-0.2713 0.30213 9.3765z" fill="#0ff7e2" fill-opacity=".39216"/>
  <path d="m152.92 195.07 164.02-6.9179 2.8723-1.4361 61.121-37.173-21.104 1.5696-0.11467-15.907-123.66 10.444-83.141 49.419z" fill="#500"/>
  <path d="m321.59 186.28c1.5081 2.7888 4.2715 3.0451 7.2597 2.4085 0.6242-1.8982 2.4922-3.3429 4.8489-3.1698l44.815-28.715 0.34862-5.9897-57.273 35.466z" fill="#7d4d2c"/>
  <path d="m299.96 205.39 78.206-0.26244 57.999-29.655-69.871 2.2696-66.333 27.648z" fill="#500"/>
  <path d="m176.02 193.92 13.709-0.677 0.17986 72.534h-13.9l0.01061-71.857z" fill="#782121"/>
  <path d="m189.39 192.83h4.0067v72.942h-4.0067z" fill="#4b1a1a"/>
  <path d="m267.77 243.74-0.81926-41.511 12.972-0.68274 0.81926 41.784-12.972 0.40964z" fill="#059f91" fill-opacity=".56078"/>
  <path d="m218.13 245.03-0.39236-41.171 13.109-0.97315 0.25582 41.734-0.27313 0.54619-12.699-0.13655z" fill="#04978a" fill-opacity=".56078"/>
  <path d="m239.16 244.9-0.51159-41.7 19.219-0.4943-0.27308 41.784-18.434 0.40965z" fill="#059a8c" fill-opacity=".56078"/>
  <path d="m211.9 204.4 73.773-2.6316-0.06179-10.189-73.681 2.8473-0.03029 9.973z" fill="#5c514a"/>
  <path d="m333.22 220.19 3.306-0.37798v49.516l-2.2962 2.2679-0.75739 0.37798-0.25242-51.783z" fill="#3a2121"/>
  <g transform="matrix(.42965 0 0 .42965 -79.283 -191.38)">
   <path d="m1115.9 992.24h27.605c0.0946-11.245-0.5366-25.196-0.5871-30.015l-3.5461-19.312-17.509-0.2682-4.4327 22.262h-1.5515l0.0219 27.333z" fill="#0ff7e2" fill-opacity=".56122"/>
   <g transform="translate(17.264 291.33)" fill="#65563b">
    <g transform="matrix(1 0 0 1.1752 4.267 -110.35)">
     <path d="m1099.6 634.94 2.8922 17.353h21.981l4.0491-17.353-28.922-1e-5z"/>
     <path d="m1125.1 651.72 5.7844 21.981h4.6275l1.1569-22.559-9.2759-9.018-2.2929 9.5964z"/>
     <path d="m1101.8 653.58-5.7844 21.981h-4.6275l-0.8832 0.1503-2.2167-22.259 11.776-10.863 1.7353 10.99z"/>
     <path d="m1100.3 657.7 17.605 0.23865 3.3454 14.497 0.1606 23.014 7.0879 0.23758-0.4002-22.056 2.5471-0.07919-5.5715-21.268-23.339 0.0792-1.4351 5.3371z"/>
     <path d="m1128.2 673.92 3.827 0.31892-1.7059 19.037-4.0828-0.33355 1.9617-19.023z"/>
     <path d="m1089.8 675.91 4.4897 0.31892 0.5941 17.502-4.2508 0.0674-0.833-17.888z"/>
    </g>
    <path d="m1097.5 707.7 36.211 0.03203 0.1767-6.5357-36.211-0.17664-0.1766 6.6803z"/>
    <path d="m1102.4 707.74h4.8349v3.2345h-4.8349z"/>
    <path d="m1124.9 707.74h4.0911v3.2345h-4.0911z"/>
    <path d="m1101.8 708.01h4.8349v3.2345h-4.8349z"/>
   </g>
   <g transform="translate(18.069 291.03)">
    <g transform="matrix(1 0 0 1.1752 4.267 -110.35)">
     <path d="m1099.6 634.94 2.8922 17.353h21.981l4.0491-17.353-28.922-1e-5z" fill="#d1b782"/>
     <path d="m1125.1 651.72 5.7844 21.981h4.6275l1.1569-22.559-9.2759-9.018-2.2929 9.5964z" fill="#d1b782"/>
     <path d="m1101.8 653.58-5.7844 21.981h-4.6275l-0.8832 0.1503-2.2167-22.259 11.776-10.863 1.7353 10.99z" fill="#d1b782"/>
     <path d="m1100.3 657.7 17.605 0.23865 3.3454 14.497 0.1606 23.014 7.0879 0.23758-0.4002-22.056 2.5471-0.07919-5.5715-21.268-23.339 0.0792-1.4351 5.3371z" fill="#554031"/>
     <path d="m1128.2 673.92 3.827 0.31892-1.7059 19.037-4.0828-0.33355 1.9617-19.023z" fill="#d1b782"/>
     <path d="m1089.8 675.91 4.4897 0.31892 0.5941 17.502-4.2508 0.0674-0.833-17.888z" fill="#d1b782"/>
    </g>
    <path d="m1097.5 707.7 36.211 0.03203 0.1767-6.5357-36.211-0.17664-0.1766 6.6803z" fill="#d1b782"/>
    <path d="m1102.4 707.74h4.8349v3.2345h-4.8349z" fill="#d1b782"/>
    <path d="m1124.9 707.74h4.0911v3.2345h-4.0911z" fill="#d1b782"/>
   </g>
  </g>
  <path d="m495.82 142.4-0.76968-14.317 4.1564 0.15395-0.89153 14.252-2.4952-0.08969z" fill="#f8eb9d" stroke="#fac27c" stroke-width=".42965"/>
  <path d="m493.18 129.68h1.2662l0.63305 12.788h-1.0129l-0.88629-12.788z" fill="#f8eb9d" stroke="#fac27c" stroke-width=".42965"/>
  <path d="m499.98 129.87-0.8844-0.06425-0.73131 12.446 0.72675 0.03213 0.88896-12.414z" fill="#f8eb9d" stroke="#fac27c" stroke-width=".42396"/>
  <path d="m469.58 187.65 49.969 1.6085c0.18531-21.083-4.6428-41.654-24.525-45.614-6.8041-0.44181-8.4274-0.77533-12.651 3.1503-12.441 11.564-12.191 27.974-12.794 40.855z" fill="#0ff7e2" fill-opacity=".56122"/>
  <path d="m469.49 187.58c-1.2459-34.707 15.161-43.079 23.83-45.936l-0.30789 0.15394-0.61574-10.93c-7.1675 2.284-13.083 5.3411-17.516 9.7339-11.764 11.655-14.539 28.698-14.088 46.673l8.6978 0.30456z" fill="#f8eb9d" stroke="#fac27c" stroke-width=".42965"/>
  <path d="m530.75 190.48-7.7893-0.80115c1.2459-34.707-14.791-44.403-23.461-47.259l0.61574-10.93c7.0136 2.7458 12.621 6.4186 17.055 10.812 12.099 11.987 14.227 29.674 13.579 48.179z" fill="#f8eb9d" stroke="#fac27c" stroke-width=".42965"/>
  <g transform="matrix(.42965 0 0 .42965 -67.421 -71.482)">
   <path d="m1220.8 632.34 18.183-0.27505 0.7633 23.1-18.274 0.62118-0.6718-23.446z" fill="#f9e2a3" stroke="#e79a83"/>
   <path d="m1224.7 635.41 0.0625 2.0312h7.9687l0.1625 13.91 2.9001 0.02919-0.5938-15.971h-10.5zm0.0625 2.0312h-0.0313 0.0313z" fill="#777a66" stroke="#5c5757" stroke-width=".63505"/>
   <path d="m1224.7 637.35h7.9813l0.4606 14.115-7.9814 0.21066-0.4605-14.326z" fill="#c8beb7" stroke="#878787" stroke-width=".51951"/>
  </g>
  <g transform="matrix(.38225 0 0 .40416 59.411 -54.082)">
   <path d="m1220.8 632.34 18.183-0.27505 0.7633 23.1-18.274 0.62118-0.6718-23.446z" fill="#f9e2a3" stroke="#e79a83"/>
   <path d="m1224.7 635.41 0.0625 2.0312h7.9687l0.1625 13.91 2.9001 0.02919-0.5938-15.971h-10.5zm0.0625 2.0312h-0.0313 0.0313z" fill="#777a66" stroke="#5c5757" stroke-width=".63505"/>
   <path d="m1224.7 637.35h7.9813l0.4606 14.115-7.9814 0.21066-0.4605-14.326z" fill="#c8beb7" stroke="#878787" stroke-width=".51951"/>
  </g>
  <path d="m457.38 183.08 0.02367 10.745 6.0413 0.18479 0.4028 3.4909 2.3765 0.08056 0.67129 49.679 16.125-0.25511-1.0204-48.873 5.1961 0.17454 1.0607 48.604 16.045-0.28196-1.289-47.772 5.5989 0.20139 0.98012 47.49 15.347-0.26854-1.1815-46.698 2.8196 0.10742-0.02685-5.0618 6.7802-0.07727 0.14024-8.9336-2.5893-0.33774c0 1e-5 -0.09182 5.2234-0.09191 4.7616s-70.412-2.1982-70.411-2.1982l-0.02118-4.7618h-2.9768zm10.482 14.729 12.608 0.63105 0.89961 47.034h-12.487l-1.0204-47.665zm21.281 0.88616 12.353 0.51021 1.1547 46.013-12.742 0.2551-0.76534-46.778zm20.892 1.0473 12.379 0.49679 1.1412 44.509-12.755 0.24168-0.76534-45.248z" fill="#fce88a" stroke="#f9bf5a" stroke-width=".42965"/>
  <path d="m469.21 245.24-0.81931-44.333 7.731-0.14519 1.3568 44.741-8.2685-0.26232z" fill="#0ff7e2" fill-opacity=".56078"/>
  <path d="m490.35 245.41-0.68491-44.065 7.5966-0.14518 0.55047 44.203-7.4621 0.00648z" fill="#0ff7e2" fill-opacity=".56078"/>
  <path d="m511.21 244.78-0.81935-42.586 7.059-0.01078 0.9537 42.591-7.1933 0.00647z" fill="#0ff7e2" fill-opacity=".56078"/>
  <path d="m478.61 245.38 2.6878-0.13439-0.67194-46.768h-2.9566l0.94072 46.903z" fill="#6c6753"/>
  <path d="m499.78 245.05 2.9566 0.13825-0.94073-45.697h-2.9566l0.94073 45.559z" fill="#6c6753"/>
  <path d="m520.21 244.78 3.3598-0.26146-1.3439-44.088h-2.9566l0.94073 44.349z" fill="#6c6753"/>
  <path d="m477 245.11 1.4783 0.1344-0.80414-46.632-9.2752-0.53977v2.8222l7.6162-0.26879 0.98481 44.484z" fill="#373e48"/>
  <path d="m497.83 245.05 1.8815-0.13439-0.89445-45.603-9.1849-0.35911-0.13439 2.5534 7.5259-0.13439 0.80633 43.677z" fill="#373e48"/>
  <path d="m518.39 244.51 1.7471 0.26878-0.71382-44.303-8.7332-0.44944-0.22913 2.4191 6.9421 0.04406 0.987 42.021z" fill="#373e48"/>
  <g transform="matrix(.42965 0 0 .42965 -66.449 -72.198)">
   <path d="m1396.8 597.96 22.044 0.56646 0.0147 6.6064-22.083-0.24128 0.0242-6.9316z" fill="#f55"/>
   <path d="m1397.1 610.65 22.15 0.04673 0.128 6.8762-22.862-0.6909 0.5835-6.232z" fill="#f55"/>
   <path d="m1396.5 617.22 23.044 0.20321-2.4617 1.3138-20.473-0.10028-0.1099-1.4167z" fill="#753333"/>
   <path d="m1396.9 605.22 21.965-0.15649-1.9455 1.7202c-9.1209 0.02288-10.581-0.33072-20-0.01035l-0.0199-1.5534z" fill="#753333"/>
  </g>
  <g transform="matrix(.42965 0 0 .42965 -66.992 -71.249)">
   <path d="m1192.8 592.92 27.349 0.56646-0.0752 6.5165-27.029-0.15135-0.2456-6.9316z" fill="#f55"/>
   <path d="m1193.2 605.44 26.556 0.22658 0.0381 6.5165-26.009-0.15135-0.5855-6.5918z" fill="#f55"/>
   <path d="m1192.7 612.28 27.181 0.11329 0.0562 1.4936-27.577 0.1695 0.3398-1.7764z" fill="#753333"/>
   <path d="m1192.7921,600 27.1808.11329-.0571,1.7202c-9.1209.02288-18.0451-.15087-27.4635.1695l.3398-2.00299z" fill="#753333"/>
  </g>
  <path d="m522.86 108.28 3.575 0.30846 33.914 24.565h-3.1299l-14.215-0.91289-20.144-23.961z" fill="#2b0000"/>
  <path d="m489.44 92.215-35.706 3.5072-3.1527 2.7822-16.209 1.0178 0.19454-0.01438-45.329 6.0802-54.112 30.306 107.91-9.8027 35.337-19.858 11.064-14.017z" fill="#530000"/>
  <path d="m426.4 105.53 15.77-0.61844 11.641-9.3474-17.677 2.2353-9.7341 7.7305z" fill="#0ff7e2" fill-opacity=".39444" stroke="#262004" stroke-opacity=".60556" stroke-width=".42965"/>
  <path d="m415.6 111.48 0.2681 9.2513-4.6927 2.9497 0.1341 0.26816-0.1341 0.93853 20.916-11.262-16.491-2.1452z" fill="#980000"/>
  <path d="m442.07 124.96c-0.24189 1.7857 0.7546 3.026 2.7232 3.0441-0.12765-1.8153 2.7807-1.9244 3.8436-1.0165l30.845-17.576 43.13 3.2816 26.407 19.116c1.6443-0.75177 3.8382-0.23187 3.6394 2.5335 1.5276 1.0984 5.9239 1.7272 6.3178-0.24656l-34.635-25.728-46.546-3.43-35.725 20.022z" fill="#784421"/>
  <path d="m415.49 113.55-15.694-10.576-14.215 12.168 0.11373 7.1645-1.9333-0.11373-0.11373-7.6194 15.694-13.874 16.262 11.031-0.11373 1.8196z" fill="#0b2228"/>
  <path d="m385.54 122.21 2.1982-0.01907 0.39768-0.30303-0.28395-6.1792 12.51-10.576 13.76 9.3253v6.2548h1.5921l-0.11373-0.11373-0.11373-7.2782-15.466-10.463-14.443 12.282-0.03742 7.0699z" fill="#374845"/>
  <path d="m388.19 122.19 1.2509-0.11372-0.11369-5.345 7.9606-7.0508 4.2078-3.298-1.1372-1.1372-12.396 10.462v2.7294l0.22746 3.7528z" fill="#1c2224"/>
  <path d="m389.67 122.08 24.564-1.5921-0.22746-6.0273-12.282-8.3018-12.282 10.235h0.11372l0.11373 5.6861z" fill="#0ff7e2" fill-opacity=".39216"/>
  <path d="m478.75 104.92 23.531 2.059 24.414 1.7648-37.503-17.207-10.442 13.383z" fill="#800000"/>
  <path d="m416.05 111.94 15.589 1.9119 6.324-10.001-7.2064-1.9119-31.62-2.059-16.472 14.56 0.29414 0.44121 16.619-14.266 16.472 11.324z" fill="#800000"/>
  <path d="m376.94 126.94 7.0046-4.6382 0.09469-7.6672-1.1359-0.37862 0.18934 7.6672-5.8688 3.9756-0.28395 1.0412z" fill="#370f0f"/>
  <path d="m372.19 207.94c1.3952 2.3404 4.0393 2.6103 6.9151 2.1457 0.63262-1.5584 2.4492-2.7155 4.7051-2.5228l43.475-22.836 0.44233-4.9515-55.538 28.165z" fill="#7d4d2c"/>
  <path d="m330.52 220.19h40.154v-12.487l-40.046 0.53341-0.10832 11.954z" fill="#5c514a"/>
  <path d="m218.12 245.14 1.5842-0.43205-0.14402-39.317 11.378-0.43207-0.28804-1.4402-13.106 0.57607 0.57608 41.046z" fill="#24222c"/>
  <path d="m239.22 244.49 1.5843-0.43206-0.4321-39.029 17.57-0.43207-0.14402-1.8722-19.155 0.7201 0.57608 41.046z" fill="#24222c"/>
  <path d="m267.44 244.06 1.4402-0.7201v-39.749l11.09-0.43207v-1.4402l-13.106 0.57607 0.57608 41.766z" fill="#24222c"/>
  <path d="m174.95 278.99 136.38 3.1911 0.25023-17.135-136.54 0.7312-0.08885 13.213z" fill="#6c5353"/>
  <path d="m311.4 265.23 15.165 0.1756 6.2152 0.3656v15.355l-6.5808-1.0968-15.194 2.208 0.39437-17.008z" fill="#483737"/>
  <path d="m326.56 265.04 7.312 0.36559 0.01435 15.706-7.2976-1.2436-0.02874-14.828z" fill="#6c5353"/>
  <path d="m367.17 268.34 19.661 0.3656 0.95418 16.846-21.537-1.2436 0.92117-15.968z" fill="#6c5353"/>
  <path d="m333.55 265.4 3.1957-0.39438 0.01439 15.574-3.2245 0.87803 0.01439-16.058z" fill="#483737"/>
  <path d="m445.16 285.42 99.005-6.906-0.15941-14.804-98.446 4.1902-0.39988 17.52z" fill="#ac9393"/>
  <path d="m542.67 259.78 17.199-0.12126 0.12018 12.457-16.039 0.74223 0.06526-9.1259-1.4066-0.06261 0.06122-3.8893z" fill="#916f6f"/>
  <path d="m386.64 268.61 39.842-2.12 1.0824 15.854-40.944 3.2734 0.0195-17.008z" fill="#916f6f"/>
  <path d="m425.97 266.29 19.659 1.5216-0.37496 17.543-19.049-2.8071-0.23588-16.258z" fill="#6c5353"/>
  <g transform="matrix(.42965 0 0 .42965 -53.204 -79.901)">
   <path d="m1019 695.78 23.175 0.44367-0.0752 6.5165-23.099-0.27414v-6.686z" fill="#d35f5f"/>
   <path d="m1019.1 702.98 23.252 0.11329-0.09-6.2002 1.0152 8.0432c-9.1209 0.02288-13.87-0.02808-22.798 0.04672l-1.3792-2.003z" fill="#8f2626"/>
   <path d="m1019.3 707.77 23.175 0.44367-0.0752 6.5165-23.099-0.27414v-6.686z" fill="#d35f5f"/>
   <path d="m1019.4 714.97 23.252 0.11329-0.09-6.2002 1.0152 8.0432c-9.1209 0.02288-13.87-0.02808-22.798 0.04672l-1.3792-2.003z" fill="#8f2626"/>
  </g>
  <g transform="matrix(.42965 0 0 .42965 -52.774 -62.291)">
   <path d="m1019 695.78 23.175 0.44367-0.0752 6.5165-23.099-0.27414v-6.686z" fill="#d35f5f"/>
   <path d="m1019.1 702.98 23.252 0.11329-0.09-6.2002 1.0152 8.0432c-9.1209 0.02288-13.87-0.02808-22.798 0.04672l-1.3792-2.003z" fill="#8f2626"/>
   <path d="m1019.3 707.77 23.175 0.44367-0.0752 6.5165-23.099-0.27414v-6.686z" fill="#d35f5f"/>
   <path d="m1019.4 714.97 23.252 0.11329-0.09-6.2002 1.0152 8.0432c-9.1209 0.02288-13.87-0.02808-22.798 0.04672l-1.3792-2.003z" fill="#8f2626"/>
  </g>
  <g transform="matrix(.42965 0 0 .42965 -52.563 -44.353)">
   <path d="m1019 695.78 23.175 0.44367-0.0752 6.5165-23.099-0.27414v-6.686z" fill="#d35f5f"/>
   <path d="m1019.1 702.98 23.252 0.11329-0.09-6.2002 1.0152 8.0432c-9.1209 0.02288-13.87-0.02808-22.798 0.04672l-1.3792-2.003z" fill="#8f2626"/>
   <path d="m1019.3 707.77 23.175 0.44367-0.0752 6.5165-23.099-0.27414v-6.686z" fill="#d35f5f"/>
   <path d="m1019.4 714.97 23.252 0.11329-0.09-6.2002 1.0152 8.0432c-9.1209 0.02288-13.87-0.02808-22.798 0.04672l-1.3792-2.003z" fill="#8f2626"/>
  </g>
  <g transform="matrix(-.26791 0 0 .42965 833.36 -87.292)">
   <path d="m1019 695.78 23.175 0.44367-0.0752 6.5165-23.099-0.27414v-6.686z" fill="#d35f5f"/>
   <path d="m1019.1 702.98 23.252 0.11329-0.09-6.2002 1.0152 8.0432c-9.1209 0.02288-13.87-0.02808-22.798 0.04672l-1.3792-2.003z" fill="#8f2626"/>
   <path d="m1019.3 707.77 23.175 0.44367-0.0752 6.5165-23.099-0.27414v-6.686z" fill="#d35f5f"/>
   <path d="m1019.4 714.97 23.252 0.11329-0.09-6.2002 1.0152 8.0432c-9.1209 0.02288-13.87-0.02808-22.798 0.04672l-1.3792-2.003z" fill="#8f2626"/>
  </g>
  <g transform="matrix(-.26791 0 0 .42965 833.77 -69.682)">
   <path d="m1019 695.78 23.175 0.44367-0.0752 6.5165-23.099-0.27414v-6.686z" fill="#d35f5f"/>
   <path d="m1019.1 702.98 23.252 0.11329-0.09-6.2002 1.0152 8.0432c-9.1209 0.02288-13.87-0.02808-22.798 0.04672l-1.3792-2.003z" fill="#8f2626"/>
   <path d="m1019.3 707.77 23.175 0.44367-0.0752 6.5165-23.099-0.27414v-6.686z" fill="#d35f5f"/>
   <path d="m1019.4 714.97 23.252 0.11329-0.09-6.2002 1.0152 8.0432c-9.1209 0.02288-13.87-0.02808-22.798 0.04672l-1.3792-2.003z" fill="#8f2626"/>
  </g>
  <g transform="matrix(-.26791 0 0 .42965 833.3 -51.744)">
   <path d="m1019 695.78 23.175 0.44367-0.0752 6.5165-23.099-0.27414v-6.686z" fill="#d35f5f"/>
   <path d="m1019.1 702.98 23.252 0.11329-0.09-6.2002 1.0152 8.0432c-9.1209 0.02288-13.87-0.02808-22.798 0.04672l-1.3792-2.003z" fill="#8f2626"/>
   <path d="m1019.3 707.77 23.175 0.44367-0.0752 6.5165-23.099-0.27414v-6.686z" fill="#d35f5f"/>
   <path d="m1019.4 714.97 23.252 0.11329-0.09-6.2002 1.0152 8.0432c-9.1209 0.02288-13.87-0.02808-22.798 0.04672l-1.3792-2.003z" fill="#8f2626"/>
  </g>
 </g>
 <g transform="translate(92.914 139.72)" fill-rule="evenodd">
  <path d="m-86.269 375.99c277.28 2.4888 519.18-4.3511 776.59-2.3874 32.554 1.8888 49.684 2.8483 93.379 1.3168-6.1473 45.52-9.9956 71.682-17.736 98.545-167.62 4.5916-408.9 10.384-576.55 10.468-191.51 19.429-194.16 8.0493-247.86 3.3069-38.102-19.451 34.652-34.844-0.87922-60.884-12.919-11.069-38.901-36.104-26.934-50.366z" fill="#000080" opacity=".76824" stroke="#00001f" stroke-width=".42965"/>
  <path transform="matrix(.42965 0 0 .42965 -52.993 -79.69)" d="m-92.914 1059.4c4.9654-13.434 14.226-25.944 17.255-40.282 6.3015-29.831 7.7239-62.353 11.438-92.719 2.3311-19.061-0.94134-39.216-3.25-58.094-1.4788-12.092-5.8574-25.092-8.1875-37-1.3442-6.8694-0.72051-13.504-1.0938-20.531-0.66587-12.537-3.2862-24.273-6.5312-36.969 22.221-16.927 27.709-10.302 46.906 4.0937 16.092 12.067 62.066-3.643 80.719-5.2812 16.491-1.4485 36.649 5.0133 53.469 5.875 11.998 0.6146 22.848 1.9584 33.813 3.5312 18.028 2.5863 25.327 9.2096 48 6.4376 10.306-1.2601 20.73-1.1631 31.094-1.75 12.723-0.7204-13.82-22.195-17.469-34.625-5.1748-17.631 37.494-1.5293 39.812-0.5938 5.8931 2.3777 21.16 17.74 25.094 20.562 8.065 5.7847 19.122-5.1849 28.906-6.4687 15.074-1.9779 19.962 7.1564 27.281 9.9687 8.4048 3.2294 12.298 13.393 19.094 19.375 6.7004 5.8981 13.739 10.798 20.188 15.844 6.2417 4.8841 18.196-14.816 20.188-16.437 4.9223-4.0079 15.995-1.2191 22.906-1.75 3.3434-0.2571 14.711 3.8478 20.188 5.2812 6.8922 1.8036 12.895 3.979 19.062 5.875 3.3605 1.0329 17.831 2.6648 19.656 2.9375 3.5016 0.5233 16.232 5.8144 19.625 7.0313 5.4008 1.9369 14.617 2.0691 20.75 2.9374 10.593 1.4997 17.054-14.125 28.281-14.406 13.158-0.3291 30.441 16.505 43.719 16.156 11.859-0.3112 23.792 0.5908 35.438 1.1876 14.889 0.7628 29.958 3.3906 44.719 5.2812 15.736 2.0155 33.507 0.5938 49.094 0.5938 8.5916-1e-4 17.679 0.9182 26.75 1.1562 11.294 0.2963 22.806 2.546 33.812 4.125 9.9833 1.4322 22.857-2.1973 32.719-2.9375 8.9106-0.6688 19.288 0.8322 28.375 0.5937 12.258-0.3216 24.323-0.5937 36.531-0.5937 9.4957 0 16.172 1.5089 25.094 2.3437 9.1308 0.8544 18.197 0 27.281 0 15.287 1e-4 30.576-2.3316 45.812-3.5312 15.948-1.2556 31.894 3.0955 47.469 5.2812 15.549 2.182 30.147 1.9203 45.812 1.1876 9.2351-0.4321 18.839 0.2434 28.344 0 16.362-0.4191 32.938-1.3949 49.094-1.7813 18.329-0.438 36.844-1.9074 55.094-2.3437 16.715-0.3995 35.577-7.387 52.375-9.9688 13.831-2.1257 28.465-3.6632 42-5.2812 7.1787-0.8581 14.892 1.1916 21.812 1.75 16.396 1.3231 36.048-4.7889 52.375-7.0313 17.171-2.3584 26.041 19.793 38.781 13.625 7.3752-3.5708 21.638-20.595 27.875-15.469 25.122 20.649 6.3518-13.995 10.25-12.813 9.1642 2.7811 30.756-45.511 34.438-29.125 9.8291 43.744 29.319 1.7617 38.281 2.9376 4.6528 0.6104 61.047 0.4458 54.312-7.9376 102.94 38.337-4.6224 43.286 110 53.969 15.925 5.5687 24.727-20.025 40.688-16.031 56.671 32.887 54.094-90.112 83.406 10.625 1.5865 9.7232 24.003-28.198 32.781-24.656 9.4467 3.8115 49.094 19.53 58.531 16.406 93.03 13.83 60.053 49.426 24.844 110 2.3577 35.512 6.9973 70.786 10.375 106.22 1.373 14.403-1.6093 29.404-6.2187 44.312l-1999.3-1.0926z" fill="#8ba65a" filter="url(#b)"/>
  <path transform="matrix(.42965 0 0 .42965 -52.993 -79.69)" d="m-14.721 1064.4c3.8992-27.592 11.019-54.898 15.938-82.188 4.8855-27.105 8.2782-51.919 7.625-79.531-0.62659-26.489-4.2943-33.211 8.75-58.812 7.4547 4.0352 14.889 8.0898 22.344 12.125 10.626 5.7513 24.047 9.4193 35.469 16.125 12.542 7.3638 28.526-1.2549 40.375-5.75 10.795-4.095 22.602-7.7613 32.719-10.969 11.404-3.6155 20.215 0.9711 30.531 1.75 14.122 1.0659 26.306 5.9618 40.906 6.3125 11.376 0.2732 19.873 1.1277 31.094 2.9063 12.307 1.951 23.22 1.7187 36 1.7187 9.2068-1e-4 23.916-4.822 31.656-6.3437 13.946-2.742 12.531 7.6466 20.719 14.406 8.4996 7.0175 14.907 17.236 21.281 25.938 1.377 1.8795 22.279 12.712 25.625 15 11.457 7.8347 20.277 1.1334 32.719-3.4687 11.926-4.411 19.873-11.486 30-19.594 10.303-8.2487 21.714-12.351 33.844-17.281 10.685-4.3429 22.07-7.6812 32.719-11.531 7.3437-2.6549 19.761 8.2075 25.094 10.375 7.7326 3.143 7.5694 17.29 9.8125 24.219 2.9064 8.9782 7.1678 15.291 10.375 22.469 2.1759 4.8693 23.059-4.0297 25.625-4.625 10.892-2.5268 15.945-2.0173 27.812-1.7188 15.519 0.3907 22.664-2.2489 36.562-6.9062 12.714-4.2602 22.89-4.6373 34.344-5.1875 3.5926-0.1725 9.4982 22.417 10.375 25.938 2.9141 11.702 26.471-9.163 31.625-12.688 13.021-8.9036 25.76-11.989 40.906-16.719 13.109-4.093 20.903 3.6702 30.562 6.3437 11.204 3.101 19.742 6.839 32.188 8.0625 6.7612 0.6647 16.014 21.921 19.094 26.531 12.733 19.064 1.5492 6.3559 22.906 6.9063 11.403 0.294 29.835-8.7724 41.438-11.531 8.3019-1.974 23.148-19.439 28.938-24.219 6.7379-5.563 18.509-4.4968 25.625-5.75 2.3921-0.4213 22.804 10.118 26.719 11.531 5.7775 2.0847 17.477-4.8409 22.906-6.3438 3.4683-0.9598 20.248 12.435 23.469 14.406 9.4019 5.7525 13.904 3.7667 23.438 6.3438 10.813 2.9235 26.163-10.433 34.375-15 9.0426-5.0295 17.387-8.3267 26.719-12.656 9.5087-4.4118 19.056-8.4104 27.844-12.125 8.5895-3.631 17.918-5.8441 27.25-10.375 10.748-5.2186 19.657 1.2285 30 4.0312 4.0619 1.1007 18.62 12.322 21.812 14.406 7.7131 5.0344 27.64-5.1551 34.938-7.4687 7.9296-2.5139 18.896-7.3842 25.625-9.8125 5.3502-1.9305 19.8-2.8021 24.531-3.4688 10.463-1.4743 15.461 1.4576 24.562 2.3126 10.586 0.9944 11.911 15.731 16.375 22.5 6.1951 9.3932 19.061 1.1556 27.812-1.1563 8.904-2.3524 16.343-8.4719 24.531-12.688 7.0421-3.6256 14.783 27.093 15.813 29.969 6.8471 19.124 24.987-5.6387 30.562-11.531 9.8142-10.372 20.874-5.6303 33.281-4.0313 3.2858 0.4236 23.455 12.384 25.094 13.25 2.6225 1.3858 26.342-0.0336 33.813 2.875 13.705 5.3361 1.7695 11.695 3.25 21.344 2.3166 15.097 10.774 7.9646 22.937 9.2188 9.3523 0.9643 14.995 5.8215 24 11.531 9.4668 6.0027 17.588-3.5536 25.625-6.9062 14.181-5.9158 14.103-18.295 19.094-28.844 5.029-10.629 18.78-7.2795 28.906-8.0625 9.7856-0.7567 20.51 4.8295 29.469 8.0625 4.6644 1.6831 1.9651 15.464-1.0938 22.5-4.0605 9.3393 20.539 1.371 30.531-0.5938 14.323-2.8159 15.778 2.0234 26.719 4.625 11.086 2.636 8.231 13.949 12.563 21.313 4.3106 7.3282 17.928 5.3657 26.187 5.7812 15.111 0.7606 12.668-5.5974 22.344-13.844 2.9046-2.4755 13.203-21.107 15.281-24.219 9.1719-13.731 16.272 2.3936 24 5.1875 14.928 5.3969 8.2461 8.6205 25.094-6.3125 15.639-13.862 13.274-7.6788 30.531 0 15.919 7.0834 0.3478 13.358-9.8124 22.469-6.1979 5.5575 1.6268 17.552 2.1874 23.625 0.4263 4.6179 21.547 18.729 25.625 22.5 13.854 12.81 6.0001 6.5924 6 24.781 1e-4 12.327 0.1545 12.218 4.9376 25.938 0.3111 0.8925 0.6518 1.7626 1.0312 2.625h-1960.5z" fill="#89a02c" filter="url(#i)"/>
  <path transform="matrix(.42965 0 0 -.42965 .059003 1169.8)" d="m-98.198 1847.5c-41.259-0.4895-27.354 57.822-24 88.906-29.275 82.56 52.098 2.6005 91.781 8.0938 53.768 65.948 144.64 66.997 215.53 19.75 74.121-51.998 183.31 65.699 238.19-23 57.052 17.953 93.703-49.287 150.19-26.531 70.915 46.41 126.33-7.371 192.47-25.375 68.71-30.35 155.09 97.212 185.59-4.1876 49.209-35.68 117.35 41.092 178.78 30.531 53.24-17.968 94.192-87.769 165.84-59.469 73.64 20.021 148.2 3.0236 224.31-8.7188h-1234.3c-11.054 0.6843-22.36 0.6577-34.656 0h-311.16c-6.9342 0.8806-13.869 1.8656-20.781 3-6.8529-1.9922-12.746-2.9399-17.812-3zm1706.3 0c44.82 4.0755 93.068 8.0973 135.91 0h-135.91z" fill="#007300" fill-opacity=".73889" filter="url(#j)" stroke="#000"/>
  <g transform="matrix(.42965 0 0 .42965 1.7545 -416.72)" filter="url(#g)" opacity=".49074" stroke="url(#a)">
   <path d="m-204.01 1847.5c4.9654 13.434 1.8475 27.036 4.8765 41.375 6.3015 29.831 7.7239 62.353 11.438 92.719 2.3311 19.061-0.94134 39.216-3.25 58.094-1.4788 12.092-5.8574 25.092-8.1875 37-1.3442 6.8694-0.72051 13.504-1.0938 20.531-0.66587 12.537-3.2862 24.273-6.5312 36.969 22.221 16.927 27.709 10.302 46.906-4.0937 16.092-12.067 62.066 3.643 80.719 5.2812 16.491 1.4485 36.649-5.0133 53.469-5.875 11.998-0.6146 22.848-1.9584 33.812-3.5312 18.028-2.5863 25.327-9.2096 48-6.4376 10.306 1.2601 20.73 1.1631 31.094 1.75 12.723 0.7204-13.82 22.195-17.469 34.625-5.1748 17.631 37.494 1.5293 39.812 0.5938 5.8931-2.3777 21.16-17.74 25.094-20.562 8.065-5.7847 19.122 5.1849 28.906 6.4687 15.074 1.9779 19.962-7.1564 27.281-9.9687 8.4048-3.2294 12.298-13.393 19.094-19.375 6.7004-5.8981 13.739-10.798 20.188-15.844 6.2417-4.8841 18.196 14.816 20.188 16.437 4.9223 4.0079 15.995 1.2191 22.906 1.75 3.3434 0.2571 14.711-3.8478 20.188-5.2812 6.8922-1.8036 12.895-3.979 19.062-5.875 3.3605-1.0329 17.831-2.6648 19.656-2.9375 3.5016-0.5233 16.232-5.8144 19.625-7.0313 5.4008-1.9369 14.617-2.0691 20.75-2.9374 10.593-1.4997 17.054 14.125 28.281 14.406 13.158 0.3291 30.441-16.505 43.719-16.156 11.859 0.3112 23.792-0.5908 35.438-1.1876 14.889-0.7628 29.958-3.3906 44.719-5.2812 15.736-2.0155 33.507-0.5938 49.094-0.5938 8.5916 1e-4 17.679-0.9182 26.75-1.1562 11.294-0.2963 22.806-2.546 33.812-4.125 9.9833-1.4322 22.857 2.1973 32.719 2.9375 8.9106 0.6688 19.288-0.8322 28.375-0.5937 12.258 0.3216 24.323 0.5937 36.531 0.5937 9.4957 0 16.172-1.5089 25.094-2.3437 9.1308-0.8544 18.197 0 27.281 0 15.287-1e-4 30.576 2.3316 45.812 3.5312 15.948 1.2556 31.894-3.0955 47.469-5.2812 15.549-2.182 30.147-1.9203 45.812-1.1876 9.2351 0.4321 18.839-0.2434 28.344 0 16.362 0.4191 32.938 1.3949 49.094 1.7813 18.329 0.438 36.844 1.9074 55.094 2.3437 16.715 0.3995 35.577 7.387 52.375 9.9688 13.831 2.1257 28.465 3.6632 42 5.2812 7.1787 0.8581 14.892-1.1916 21.812-1.75 16.396-1.3231 36.048 4.7889 52.375 7.0313 17.171 2.3584 26.041-19.793 38.781-13.625 7.3752 3.5708 21.638 20.595 27.875 15.469 25.122-20.649 6.3518 13.995 10.25 12.813 9.1642-2.7811 30.756 45.511 34.438 29.125 9.8291-43.744 29.319-1.7617 38.281-2.9376 4.6528-0.6104 61.047-0.4458 54.312 7.9376 102.94-38.337-4.6224-43.286 110-53.969 15.925-5.5687 24.727 20.025 40.688 16.031 56.671-32.887 54.094 90.112 83.406-10.625 1.5865-9.7232 24.003 28.198 32.781 24.656 9.4467-3.8115 49.094-19.53 58.531-16.406 93.03-13.83 60.053-49.426 24.844-110 2.3577-35.512 6.9973-70.786 10.375-106.22 1.373-14.403-1.6093-29.404-6.2187-44.312h-1986.9z" fill="#8ba65a" opacity=".61574" stroke-width="1.009"/>
   <path d="m-138.2 1843.6c3.8992 27.592 11.019 54.898 15.938 82.188 4.8855 27.105 8.2782 51.919 7.625 79.531-0.62659 26.489-4.2943 33.211 8.75 58.812 7.4547-4.0352 14.889-8.0898 22.344-12.125 10.626-5.7513 24.047-9.4193 35.469-16.125 12.542-7.3638 28.526 1.2549 40.375 5.75 10.795 4.095 22.602 7.7613 32.719 10.969 11.404 3.6155 20.215-0.9711 30.531-1.75 14.122-1.0659 26.306-5.9618 40.906-6.3125 11.376-0.2732 19.873-1.1277 31.094-2.9063 12.307-1.951 23.22-1.7187 36-1.7187 9.2068 1e-4 23.916 4.822 31.656 6.3437 13.946 2.742 12.531-7.6466 20.719-14.406 8.4996-7.0175 14.907-17.236 21.281-25.938 1.377-1.8795 22.279-12.712 25.625-15 11.457-7.8347 20.277-1.1334 32.719 3.4687 11.926 4.411 19.873 11.486 30 19.594 10.303 8.2487 21.714 12.351 33.844 17.281 10.685 4.3429 22.07 7.6812 32.719 11.531 7.3437 2.6549 19.761-8.2075 25.094-10.375 7.7326-3.143 7.5694-17.29 9.8125-24.219 2.9064-8.9782 7.1678-15.291 10.375-22.469 2.1759-4.8693 23.059 4.0297 25.625 4.625 10.892 2.5268 15.945 2.0173 27.812 1.7188 15.519-0.3907 22.664 2.2489 36.562 6.9062 12.714 4.2602 22.89 4.6373 34.344 5.1875 3.5926 0.1725 9.4982-22.417 10.375-25.938 2.9141-11.702 26.471 9.163 31.625 12.688 13.021 8.9036 25.76 11.989 40.906 16.719 13.109 4.093 20.903-3.6702 30.562-6.3437 11.204-3.101 19.742-6.839 32.188-8.0625 6.7612-0.6647 16.014-21.921 19.094-26.531 12.733-19.064 1.5492-6.3559 22.906-6.9063 11.403-0.294 29.835 8.7724 41.438 11.531 8.3019 1.974 23.148 19.439 28.938 24.219 6.7379 5.563 18.509 4.4968 25.625 5.75 2.3921 0.4213 22.804-10.118 26.719-11.531 5.7775-2.0847 17.477 4.8409 22.906 6.3438 3.4683 0.9598 20.248-12.435 23.469-14.406 9.4019-5.7525 13.904-3.7667 23.438-6.3438 10.813-2.9235 26.163 10.433 34.375 15 9.0426 5.0295 17.387 8.3267 26.719 12.656 9.5087 4.4118 19.056 8.4104 27.844 12.125 8.5895 3.631 17.918 5.8441 27.25 10.375 10.748 5.2186 19.657-1.2285 30-4.0312 4.0619-1.1007 18.62-12.322 21.812-14.406 7.7131-5.0344 27.64 5.1551 34.938 7.4687 7.9296 2.5139 18.896 7.3842 25.625 9.8125 5.3502 1.9305 19.8 2.8021 24.531 3.4688 10.463 1.4743 15.461-1.4576 24.562-2.3126 10.586-0.9944 11.911-15.731 16.375-22.5 6.1951-9.3932 19.061-1.1556 27.812 1.1563 8.904 2.3524 16.343 8.4719 24.531 12.688 7.0421 3.6256 14.783-27.093 15.813-29.969 6.8471-19.124 24.987 5.6387 30.562 11.531 9.8142 10.372 20.874 5.6303 33.281 4.0313 3.2858-0.4236 23.455-12.384 25.094-13.25 2.6225-1.3858 26.342 0.0336 33.813-2.875 13.705-5.3361 1.7695-11.695 3.25-21.344 2.3166-15.097 10.774-7.9646 22.937-9.2188 9.3523-0.9643 14.995-5.8215 24-11.531 9.4668-6.0027 17.588 3.5536 25.625 6.9062 14.181 5.9158 14.103 18.295 19.094 28.844 5.029 10.629 18.78 7.2795 28.906 8.0625 9.7856 0.7567 20.51-4.8295 29.469-8.0625 4.6644-1.6831 1.9651-15.464-1.0938-22.5-4.0605-9.3393 20.539-1.371 30.531 0.5938 14.323 2.8159 15.778-2.0234 26.719-4.625 11.086-2.636 8.231-13.949 12.563-21.313 4.3106-7.3282 17.928-5.3657 26.187-5.7812 15.111-0.7606 12.668 5.5974 22.344 13.844 2.9046 2.4755 13.203 21.107 15.281 24.219 9.1719 13.731 16.272-2.3936 24-5.1875 14.928-5.3969 8.2461-8.6205 25.094 6.3125 15.639 13.862 13.274 7.6788 30.531 0 15.919-7.0834 0.3478-13.358-9.8124-22.469-6.1979-5.5575 1.6268-17.552 2.1874-23.625 0.4263-4.6179 21.547-18.729 25.625-22.5 13.854-12.81 6.0001-6.5924 6-24.781 1e-4 -12.327 0.1545-12.218 4.9376-25.938 0.3111-0.8925 0.6518-21.056 1.0312-21.918l-1960.5 19.293z" fill="#89a02c" opacity=".61574"/>
   <path d="m-98.198 1847.5c-41.259-0.4895-27.354 57.822-24 88.906-29.275 82.56 52.098 2.6005 91.781 8.0938 53.768 65.948 144.64 66.997 215.53 19.75 74.121-51.998 183.31 65.699 238.19-23 57.052 17.953 93.703-49.287 150.19-26.531 70.915 46.41 126.33-7.371 192.47-25.375 68.71-30.35 155.09 97.212 185.59-4.1876 49.209-35.68 117.35 41.092 178.78 30.531 53.24-17.968 94.192-87.769 165.84-59.469 73.64 20.021 148.2 3.0236 224.31-8.7188h-1234.3c-11.054 0.6843-22.36 0.6577-34.656 0h-311.16c-6.9342 0.8806-13.869 1.8656-20.781 3-6.8529-1.9922-12.746-2.9399-17.812-3zm1706.3 0c44.82 4.0755 93.068 8.0973 135.91 0h-135.91z" fill="#007300" fill-opacity=".73889" filter="url(#h)" opacity=".61574"/>
  </g>
 </g>
 <g transform="translate(92.914 139.72)">
  <path transform="matrix(.42965 0 0 .42965 -52.993 -79.69)" d="m-4.7083 1123.8c42.671-12.809 140.99 42.121 181.92 45.278 42.726-6.0894 81.174-31.54 125.2-30.34 38.953-8.7043 87.095-22.975 119.98 8.429 27.232 30.158 71.156 7.6816 104.03 24.694 31.049 23.16 72.594-9.1657 96.593 21.008 20.469 33.829 35.568 83.835 83.825 84.082 32.253 3.1329 61.999-14.404 94.436-10.967 45.521 1.5888 90.861 2.7479 135.95 9.4233 14.508-0.6147 78.904 14.004 35.514 21.418-66.903 4.6661-133.45-6.961-200.34-5.7124-97.176 10.929-194.7 0.4718-291.93-3.5841-83.566-3.4048-167.42-1.7426-250.81 4.0028-51.26 8.3739-101.97-7.1978-153.3-7.3772-30.302-2.1084-90.529-41.8-82.703-60.801 7.7389-21.266-26.324-131.08 33.745-103.86-98.404-68.341-26.998 2.8177-32.114 4.3121z" fill="#55d400" fill-rule="evenodd" filter="url(#k)" stroke="#000"/>
  <path d="m-86.269-139.52-4.5839 667.89h893.52v-667.89l-888.94-3.6e-4zm73.68 73.354 738.8-4.4259v532.41l-738.8 4.4259v-532.41z" fill="#fafaff" stroke="#7d00fe" stroke-width=".40325"/>
 </g>
</svg>
