<?xml version="1.0" encoding="utf-8"?>
<svg xmlns="http://www.w3.org/2000/svg" xmlns:xlink="http://www.w3.org/1999/xlink" version= "1.1" width="1617px" height="1000px" viewBox="-450 217 1617 1000">
<g id="layer1">
<g style="fill:#ffff; fill-opacity:1.0; stroke-linejoin: miter">
<path d="M-450.001,215.70714C-450.34363,215.70714,-450.6722,215.84325,-450.9145,216.08551C-451.15677,216.32777,-451.29288,216.65637,-451.29288,216.999L-451.29187,1217.0C-451.29187,1217.7135,-450.71347,1218.2919,-450.0,1218.2919L1167.001,1218.2928C1167.3436,1218.2928,1167.6721,1218.1567,1167.9144,1217.9144C1168.1567,1217.6721,1168.2928,1217.3436,1168.2928,1217.001L1168.2919,217.0C1168.2919,216.28653,1167.7135,215.70815,1167.0,215.70815L-450.001,215.70714 Z"/>
</g>
</g>
<g id="layer2">
<g style="fill:rgb(103,118,120); fill-opacity:0.99607843; stroke-linejoin: miter">
<path d="M193.57811,1042.7777L193.52646,1042.7988L184.30188,1052.0233L184.3016,1052.0236L176.05865,1060.3582L176.1102,1060.4814L363.5638,1060.2755L363.56534,1060.2736L552.1785,1059.9601L552.2481,1059.9073L554.096,1053.2936L554.0959,1053.2937L554.0977,1053.2875C555.0308,1050.0637,555.5617,1047.3698,555.62054,1046.3436L555.6119,1046.3446L555.5726,1046.3898L555.5633,1046.2548C550.6899,1045.8657,508.2817,1045.3679,457.30484,1044.875L457.29715,1044.876L457.29617,1044.8729L450.46768,1044.82L448.91837,1044.8079L447.34534,1044.7958C393.4776,1044.3778,319.1738,1043.801,276.12085,1043.4067L276.11505,1043.4077L276.11386,1043.4047L193.57811,1042.7777 Z"/>
</g>
<g style="fill:rgb(103,118,120); fill-opacity:0.99607843; stroke-linejoin: miter">
<path d="M671.83075,1044.1211L671.8277,1044.1212C670.94,1044.1481,669.017,1044.2124,666.017,1044.3168L666.0152,1044.315L654.50885,1044.7106L632.32,1045.4746L632.31793,1045.4729C612.35004,1046.1545,595.759,1046.835,593.31976,1047.086L593.32733,1047.2347L593.3184,1047.2357C593.31647,1047.2395,593.3145,1047.2444,593.31256,1047.249L593.31256,1047.25L593.24506,1047.1477C592.8792,1048.0208,591.9251,1050.8413,590.93866,1054.1593L590.93854,1054.1598L589.10834,1060.3827L589.2054,1060.5123L672.2718,1060.5143L672.373,1060.413L672.373,1052.2062C672.373,1048.2736,672.1662,1045.2156,671.9393,1044.2003L671.8405,1044.1211 Z"/>
</g>
<g style="fill:rgb(0,0,0); fill-opacity:0.99607843; stroke-linejoin: miter">
<path d="M252.1726,1048.3728L252.17276,1048.3751L252.1724,1048.3738L252.1726,1048.3728 Z"/>
</g>
<g style="fill:rgb(255,255,255); fill-opacity:0.99607843; stroke-linejoin: miter">
<path d="M-18.447292,984.07495L-18.447155,984.07556Q-18.447155,984.0769,-18.447292,984.07495 Z"/>
</g>
<g style="fill:rgb(255,255,255); fill-opacity:1.0; stroke-linejoin: miter">
<path d="M186.68771,1156.4828L186.68771,1156.4833L186.68771,1156.4828"/>
</g>
<g style="fill:rgb(60,70,79); fill-opacity:0.99607843; stroke-linejoin: miter">
<path d="M35.376114,412.8903L35.37615,412.8908L35.376183,412.8913L35.37615,412.8908L35.376114,412.8903L35.37615,412.8908L35.376183,412.8913Q35.37615,412.8908,35.376114,412.8903"/>
</g>
<g style="fill:rgb(60,70,79); fill-opacity:0.99607843; stroke-linejoin: miter">
<path d="M57.965794,352.30844L57.96586,352.30896L57.965923,352.30945L57.96586,352.30896L57.965794,352.30844L57.96586,352.30896L57.965923,352.30945Q57.96586,352.30896,57.965794,352.30844"/>
</g>
<g style="fill:rgb(60,70,79); fill-opacity:0.99607843; stroke-linejoin: miter">
<path d="M57.965794,352.30844L57.96586,352.30896L57.965923,352.30945L57.96586,352.30896L57.965794,352.30844L57.96586,352.30896L57.965923,352.30945Q57.96586,352.30896,57.965794,352.30844"/>
</g>
<g style="fill:rgb(60,70,79); fill-opacity:0.99607843; stroke-linejoin: miter">
<path d="M75.40664,297.9733L75.406685,297.9738L75.40674,297.97427L75.406685,297.9738L75.40664,297.9733L75.406685,297.9738L75.40674,297.97427Q75.406685,297.9738,75.40664,297.9733"/>
</g>
<g style="fill:rgb(60,70,79); fill-opacity:0.99607843; stroke-linejoin: miter">
<path d="M75.40664,297.9733L75.406685,297.9738L75.40674,297.97427L75.406685,297.9738L75.40664,297.9733L75.406685,297.9738L75.40674,297.97427Q75.406685,297.9738,75.40664,297.9733"/>
</g>
<g style="fill:rgb(60,70,79); fill-opacity:0.99607843; stroke-linejoin: miter">
<path d="M75.40664,297.9733L75.406685,297.9738L75.40674,297.97427L75.406685,297.9738L75.40664,297.9733L75.406685,297.9738L75.40674,297.97427Q75.406685,297.9738,75.40664,297.9733"/>
</g>
<g style="fill:rgb(60,70,79); fill-opacity:0.99607843; stroke-linejoin: miter">
<path d="M75.40664,297.9733L75.406685,297.9738L75.40674,297.97427L75.406685,297.9738L75.40664,297.9733L75.406685,297.9738L75.40674,297.97427Q75.406685,297.9738,75.40664,297.9733"/>
</g>
<g style="fill:rgb(60,70,79); fill-opacity:0.99607843; stroke-linejoin: miter">
<path d="M51.324318,394.14438L51.324383,394.1449L51.324448,394.1454L51.324383,394.1449L51.324318,394.14438L51.324383,394.1449L51.324448,394.1454Q51.324383,394.1449,51.324318,394.14438"/>
</g>
<g style="fill:rgb(34,43,50); fill-opacity:0.99607843; stroke-linejoin: miter">
<path d="M111.54236,319.61337L111.54227,319.6139L111.542175,319.61438L111.54227,319.6139L111.54236,319.61337L111.54227,319.6139L111.542175,319.61438Q111.54227,319.6139,111.54236,319.61337"/>
</g>
<g style="fill:rgb(34,43,50); fill-opacity:0.99607843; stroke-linejoin: miter">
<path d="M111.54236,319.61337L111.54227,319.6139L111.542175,319.61438L111.54227,319.6139L111.54236,319.61337L111.54227,319.6139L111.542175,319.61438Q111.54227,319.6139,111.54236,319.61337"/>
</g>
<g style="fill:rgb(255,197,161); fill-opacity:0.99607843; stroke-linejoin: miter">
<path d="M280.09497,817.0522L282.42596,817.5944Q306.15826,822.7487,313.48523,829.1353L318.9793,833.7221Q347.99643,862.74475,357.4503,870.32263Q374.31976,884.647,383.9615,889.4043Q395.89264,895.7501,412.2046,897.8556Q430.9096,900.33875,437.52386,896.8845Q463.84406,884.90393,501.02203,869.23584Q511.99823,864.0341,515.73553,861.30365Q521.03143,857.8094,525.17004,853.5336L543.458,832.4173L549.4224,827.6772L565.7713,816.81854Q568.76276,814.7796,574.05786,807.99097L589.98303,781.744Q592.42474,777.40576,592.83734,772.9265Q590.32715,753.05145,576.78076,754.97675L581.6935,715.5637Q581.5218,705.3142,576.99725,705.17664Q571.4813,704.0392,562.5345,707.6146Q556.6317,711.76013,550.22723,720.0088Q543.099,728.52386,543.7322,746.731Q535.6887,753.7895,530.62006,761.20233L514.96576,790.1007Q511.78583,795.52954,505.32397,802.70386Q499.52277,808.73553,494.14917,811.1716L476.24854,818.5672Q472.6989,819.8226,471.39758,819.66986Q470.00317,819.94806,467.00998,818.1574Q456.7322,806.149,446.64194,801.0357L438.26883,797.4561Q418.27432,791.1261,401.7497,783.98755Q387.8416,777.8983,379.52747,771.56714Q373.89838,767.7693,363.28915,756.3848L328.0927,715.2565Q317.10043,704.6588,312.39987,702.7809Q295.62137,692.6898,263.8166,705.1376Q246.79517,711.29346,227.21071,724.1976L280.09497,817.0522"/>
</g>
<g style="fill:rgb(255,241,232); fill-opacity:0.99607843; stroke-linejoin: miter">
<path d="M443.02774,808.6905L443.02774,808.6912Q453.7241,815.54584,455.73062,818.2702Q459.48746,822.1606,459.75232,826.97675Q459.81897,828.5666,459.50354,830.1335Q459.18793,831.7006,458.52325,833.1491L457.7796,834.54376Q454.92932,838.8536,450.89813,839.6944Q449.08844,840.1508,446.34183,839.9726Q445.6694,840.0302,441.7441,839.21954Q440.98434,839.10675,436.7971,837.7847Q434.27512,836.9727,428.13162,834.5728L443.02774,808.6905"/>
</g>
<g style="fill:rgb(255,255,255); fill-opacity:0.99607843; stroke-linejoin: miter">
<path d="M186.21773,713.8799L219.73764,704.45166L253.25757,695.02344Q272.00684,761.68115,290.75623,828.3388L223.71672,847.19635Q204.96713,780.5383,186.21773,713.8799"/>
</g>
<g style="fill:rgb(255,203,40); fill-opacity:1.0; stroke-linejoin: miter">
<path d="M447.39624,382.4093L319.8172,518.5434L575.0236,518.4983L447.39624,382.4093 Z M447.41614,492.688C433.14886,492.69055,421.58154,481.12665,421.57898,466.86017C421.57648,452.59296,433.1396,441.02563,447.4068,441.02295C461.674,441.0204,473.2414,452.5843,473.2439,466.85083C473.24646,481.11743,461.68335,492.6855,447.41614,492.688 Z"/>
</g>
<g style="fill:rgb(255,203,40); fill-opacity:1.0; stroke-linejoin: miter">
<path d="M318.2981,520.1651L318.25873,520.2072L318.28333,656.3176L456.05713,656.29364L456.03693,544.35144L537.8401,544.33734L537.8602,656.27814L576.6092,656.2718L576.5861,527.1081L318.29938,527.15533L318.2981,520.1651 Z M350.56903,630.4794L350.55975,578.81445L350.55823,570.2036L350.5551,552.98206L350.55353,544.37115L359.1643,544.3701L419.44006,544.3587L428.05084,544.3577L428.05243,552.9679L428.05554,570.18964L428.05713,578.8005L428.0664,630.4654L428.068,639.07623L419.4571,639.0786L359.1814,639.0886L350.57062,639.091L350.56903,630.4794 Z"/>
</g>
<g style="fill:rgb(88,95,113); fill-opacity:1.0; stroke-linejoin: miter">
<path d="M575.02435,518.4975L319.8172,518.5442L318.2981,520.1651L318.29938,527.1546L576.5854,527.1089L576.62476,527.1081L576.6235,520.20294 Z"/>
</g>
<g style="fill:rgb(88,95,113); fill-opacity:1.0; stroke-linejoin: miter">
<path d="M608.2066,516.1158L568.0043,473.2497L567.9953,423.77972L542.1628,423.78503L542.1668,445.69916L447.38947,344.64026L286.6341,516.17365L305.48456,533.83777L318.25806,520.2072L318.2981,520.1651L319.8172,518.5434L447.39624,382.4093L575.02435,518.4975L576.6235,520.20294L589.36316,533.78656 Z"/>
</g>
<g style="fill:rgb(105,90,105); fill-opacity:1.0; stroke-linejoin: miter">
<path d="M447.4068,441.02295C433.1396,441.02563,421.57648,452.59363,421.57898,466.86017C421.58154,481.12738,433.14886,492.6905,447.41614,492.688C461.68335,492.68542,473.24646,481.11743,473.2439,466.85083C473.2414,452.58368,461.674,441.0204,447.4068,441.02295 Z M447.41455,484.0772C437.903,484.07898,430.19147,476.37012,430.18976,466.85858C430.18872,460.63977,433.48456,455.19153,438.42535,452.1631C440.79456,450.71014,443.5421,449.81537,446.48663,449.6593C446.79175,449.643,447.09967,449.6339,447.40906,449.6339C456.92053,449.63214,464.63214,457.34094,464.6338,466.85236C464.63556,476.36395,456.9261,484.07544,447.41455,484.0772 Z"/>
</g>
<g style="fill:rgb(149,255,255); fill-opacity:1.0; stroke-linejoin: miter">
<path d="M447.4084,449.6339C456.9192,449.63214,464.6314,457.3416,464.63306,466.85236C464.6314,457.34094,456.91986,449.63214,447.4084,449.6339 Z"/>
</g>
<g style="fill:rgb(149,255,255); fill-opacity:1.0; stroke-linejoin: miter">
<path d="M446.4859,449.65863C446.79108,449.6424,447.099,449.63312,447.4084,449.63312C447.099,449.6339,446.79175,449.6432,446.4859,449.65863 Z"/>
</g>
<g style="fill:rgb(178,215,242); fill-opacity:1.0; stroke-linejoin: miter">
<path d="M435.23303,454.68146C436.19122,453.72156,437.26337,452.8756,438.42548,452.1631C433.48523,455.19153,430.18872,460.63977,430.18976,466.85858C430.19153,476.37012,437.90308,484.07898,447.41455,484.0772C456.9261,484.07544,464.63483,476.364,464.63306,466.85236C464.6339,471.60748,462.70685,475.91357,459.5899,479.02966L435.23303,454.68146 Z"/>
</g>
<g style="fill:rgb(139,181,211); fill-opacity:1.0; stroke-linejoin: miter">
<path d="M447.4084,449.6339C447.099,449.6339,446.79175,449.6432,446.4859,449.6593C443.54138,449.81537,440.79456,450.71014,438.42468,452.1631C437.26263,452.8756,436.19116,453.72156,435.23236,454.68146L459.58917,479.02966C462.70618,475.91357,464.63324,471.60748,464.6324,466.85236C464.6314,457.3416,456.91913,449.63214,447.4084,449.6339 Z"/>
</g>
<g style="fill:rgb(178,215,242); fill-opacity:1.0; stroke-linejoin: miter">
<path d="M410.8448,630.4685L359.17053,578.81213L359.17987,630.4778L419.45557,630.46765 Z"/>
</g>
<g style="fill:rgb(139,181,211); fill-opacity:1.0; stroke-linejoin: miter">
<path d="M359.1659,552.9796L419.44165,552.9689L419.44476,570.19055L359.169,570.20135L359.1659,552.9796 Z M359.1659,552.9796L419.44165,552.9689L419.44476,570.19055L359.169,570.20135L359.1659,552.9796 Z M359.1659,552.9796L419.44165,552.9689L419.44476,570.19055L359.169,570.20135L359.1659,552.9796 Z M359.1659,552.9796L419.44165,552.9689L419.44476,570.19055L359.169,570.20135L359.1659,552.9796 Z"/>
</g>
<g style="fill:rgb(88,95,113); fill-opacity:1.0; stroke-linejoin: miter">
<path d="M419.4571,639.0778L428.068,639.07697L428.06647,630.4654L428.05713,578.8005L428.0556,570.18964L428.05243,552.9679L428.05084,544.35706L419.44006,544.3594L359.1643,544.36945L350.55353,544.3719L350.5551,552.98206L350.55823,570.2036L350.55975,578.81445L350.56903,630.4794L350.57062,639.0902L359.1814,639.08936L419.4571,639.0778 Z M359.1659,552.9796L419.44165,552.9696L419.44476,570.19055L359.169,570.202L359.1659,552.9796 Z M359.17053,578.81213L419.4463,578.80206L419.45557,630.4663L359.17987,630.4778L359.17053,578.81213 Z"/>
</g>
<g style="fill:rgb(139,181,211); fill-opacity:1.0; stroke-linejoin: miter">
<path d="M419.45557,630.467L419.4463,578.80133L359.17053,578.81287L410.8448,630.4685 Z"/>
</g>
<g style="fill:rgb(246,135,26); fill-opacity:1.0; stroke-linejoin: miter">
<path d="M537.8642,682.11053L537.85956,656.27814L537.8393,544.3367L456.0362,544.3521L456.05646,656.29285L456.0611,682.1253 Z"/>
</g>
<g style="fill:rgb(88,95,113); fill-opacity:1.0; stroke-linejoin: miter">
<path d="M456.05646,656.29285L318.2826,656.3184L318.28723,682.1501L456.0611,682.12604L456.0611,682.1253 Z"/>
</g>
<g style="fill:rgb(88,95,113); fill-opacity:1.0; stroke-linejoin: miter">
<path d="M537.8642,682.11053L537.8642,682.1113L576.61316,682.1036L576.6085,656.27106L537.85956,656.2789 Z"/>
</g>
<g style="fill:rgb(34,43,50); fill-opacity:1.0; stroke-linejoin: miter">
<path d="M42.295723,412.53717L42.289734,412.53732L42.289764,412.53833L42.289764,412.53732L42.295723,412.53717 Z M672.4119,1044.1913C672.3565,1044.2047,672.30743,1044.2094,672.26263,1044.2094L672.2614,1044.2103L672.40216,1044.1913 Z M555.96466,1046.3739C555.99066,1046.3794,556.002,1046.3832,556.002,1046.3844L555.99713,1046.3854C555.9902,1046.3833,555.97565,1046.3801,555.956,1046.3739 Z M593.06805,1047.2217C593.0562,1047.2249,593.04767,1047.2266,593.0434,1047.2272L593.0402,1047.2281C593.0402,1047.2266,593.0461,1047.2245,593.059,1047.2217 Z M193.57759,1042.85L276.1133,1043.477L276.1122,1043.478C320.02997,1043.881,396.34686,1044.4724,450.4672,1044.8922L457.29562,1044.9452L457.29428,1044.9462C508.28244,1045.4402,550.68304,1045.9377,555.55756,1046.3268L555.5489,1046.3278C555.4937,1047.3383,554.96454,1050.0327,554.028,1053.2677L554.0263,1053.274L552.1783,1059.8878L363.56332,1060.2013L363.56375,1060.2023L176.1101,1060.4092L184.35304,1052.0745L193.57759,1042.85 Z M671.8405,1044.2223C672.06476,1045.2255,672.2718,1048.2722,672.2718,1052.2062L672.2718,1060.413L589.2054,1060.4113L591.0357,1054.1882C592.0224,1050.8693,592.97687,1048.0485,593.33905,1047.1848L593.33,1047.1858C595.76605,1046.9359,612.3492,1046.2557,632.3215,1045.574L632.3216,1045.575L654.5124,1044.8116L666.0186,1044.416L666.0185,1044.417C668.96564,1044.3154,670.997,1044.2476,671.83075,1044.2223 Z M35.381912,1134.9987L35.37828,1134.9996L35.374092,1134.9987L35.381912,1134.9996 Z M48.697334,412.43207C48.69346,412.43207,48.689514,412.43207,48.68564,412.43222L42.289764,412.53732L42.289764,412.53833L42.277718,412.5375C38.791832,412.64337,27.683868,413.27252,17.610052,414.0069L17.609846,414.0079L17.560759,414.01038L17.560583,414.01138L17.50997,414.01398L17.509901,414.01498C-0.81250525,415.2701,-1.0423675,415.3057,-38.830666,425.6687L-38.830635,425.6697C-73.40887,435.0058,-77.47497,436.11285,-76.87246,438.97412L-76.86292,439.01373L-76.86358,439.01474C-76.30682,441.71295,-52.822716,589.19434,-24.453484,768.1709L-13.860285,835.03076L-5.69641,886.55804C30.227589,1113.2812,33.34337,1132.7458,34.505905,1134.5294L34.505943,1134.5295C34.719467,1134.8569,34.998276,1134.9784,35.268578,1134.9965L35.265114,1134.9974C35.485703,1135.247,35.827034,1136.2765,35.827034,1137.7648L35.827034,1140.8071C35.827034,1140.9948,35.901566,1141.1747,36.034256,1141.3073C36.16691,1141.44,36.346893,1141.5145,36.534523,1141.5145L733.47833,1141.5128C733.86127,1141.5128,734.17474,1141.2081,734.1855,1140.8252L734.8145,1118.6013C735.2342,1106.4305,735.5489,1082.0896,735.5489,1064.5786L735.5489,1032.8107C735.5489,1032.4199,735.232,1032.1031,734.8414,1032.1031L151.52946,1032.1011L151.52946,1027.9856L151.52946,1023.1625C151.52946,1022.90393,151.38843,1022.666,151.16162,1022.54175C151.05562,1022.48364,150.93878,1022.45496,150.82211,1022.45496C150.68918,1022.45496,150.5566,1022.49243,150.4406,1022.56665L147.81935,1024.2443L147.79997,1024.2572C147.05475,1024.7695,146.54926,1025.0021,146.26276,1025.0847L146.26276,1025.0857C145.16988,1015.9946,105.78629,768.6562,104.75973,764.37067L104.76118,764.37164C104.76392,764.37067,104.7308,764.23413,104.644966,764.1024L104.64709,764.1034C104.45983,763.8219,104.13543,763.76526,104.117424,763.7625L104.11753,763.7635C103.83817,763.6988,103.3117,763.682,102.6876,763.682C99.83547,763.682,92.96935,764.063,85.134346,764.6285L85.132545,764.62946C77.6358,765.109,73.099655,765.3674,70.16661,765.3674C66.706726,765.3674,65.62503,765.0043,64.60774,764.3259L64.59216,764.3158C62.058826,762.72076,60.88767,759.2925,61.849834,756.21356L61.851154,756.2094C62.821285,753.03436,67.28758,751.6916,85.10935,750.8376L85.10796,750.83856C94.77346,750.46234,100.67266,749.8427,101.81953,749.0148L101.81974,749.01575C101.96644,748.9087,102.249626,748.6586,102.249626,748.2436C102.249626,748.2034,102.246056,748.1665,102.24546,748.1604L102.24543,748.15967C102.104195,746.6271,90.30233,671.23114,75.81845,579.9517L75.81848,579.9527L49.396065,413.02896C49.341545,412.68472,49.044693,412.43207,48.697334,412.43207 Z"/>
</g>
<g style="fill:rgb(34,43,50); fill-opacity:0.32941177; stroke-linejoin: miter">
<path d="M909.5202,1137.0397L904.8527,1140.5544Q871.6683,1151.1761,710.65753,1157.5446Q548.5327,1163.9077,328.83136,1162.7051Q119.155106,1161.024,-6.5573673,1152.8676Q-46.837032,1150.231,-72.913635,1147.1218L-94.83031,1143.9254Q-112.89165,1140.6262,-113.09471,1137.0397Q-107.61179,1126.0331,36.663773,1118.7242Q180.93935,1111.4155,398.21277,1111.1378Q615.486,1111.4155,759.7617,1118.7242Q904.03735,1126.0331,909.5202,1137.0397"/>
</g>
<g style="fill:rgb(34,43,50); fill-opacity:0.99607843; stroke-linejoin: miter">
<path d="M81.59268,708.6973L88.48223,707.56885L95.37178,706.4403Q102.32181,748.85095,109.271835,791.26154Q102.38244,792.391,95.49304,793.5204Q88.54286,751.1089,81.59268,708.6973"/>
</g>
<g style="fill:rgb(68,197,229); fill-opacity:0.99607843; stroke-linejoin: miter">
<path d="M-34.86687,456.3893L4.2858753,444.38278L43.438625,432.37628L131.80354,1014.39856Q97.997665,1047.5989,64.1918,1080.7993L-34.86687,456.3893"/>
</g>
<g style="fill:rgb(34,43,50); fill-opacity:0.99607843; stroke-linejoin: miter">
<path d="M15.908468,612.99243L15.908485,612.99255L15.908504,612.9926L15.908485,612.99255L15.908468,612.99243L15.908485,612.99255L15.908504,612.9926Q15.908485,612.99255,15.908468,612.99243"/>
</g>
<g style="fill:rgb(34,43,50); fill-opacity:0.99607843; stroke-linejoin: miter">
<path d="M15.908468,612.99243L15.908485,612.99255L15.908504,612.9926L15.908485,612.99255L15.908468,612.99243L15.908485,612.99255L15.908504,612.9926Q15.908485,612.99255,15.908468,612.99243"/>
</g>
<g style="fill:rgb(34,43,50); fill-opacity:0.99607843; stroke-linejoin: miter">
<path d="M15.908468,612.99243L15.908485,612.99255L15.908504,612.9926L15.908485,612.99255L15.908468,612.99243L15.908485,612.99255L15.908504,612.9926Q15.908485,612.99255,15.908468,612.99243"/>
</g>
<g style="fill:rgb(34,43,50); fill-opacity:0.99607843; stroke-linejoin: miter">
<path d="M15.908468,612.99243L15.908485,612.99255L15.908504,612.9926L15.908485,612.99255L15.908468,612.99243L15.908485,612.99255L15.908504,612.9926Q15.908485,612.99255,15.908468,612.99243"/>
</g>
<g style="fill:rgb(34,43,50); fill-opacity:0.99607843; stroke-linejoin: miter">
<path d="M30.330421,727.83356L115.97475,708.8008L201.61887,689.76807Q220.6529,775.4114,239.68695,861.055Q154.04306,880.0896,68.399,899.1244Q49.3647,813.47894,30.330421,727.83356"/>
</g>
</g>
</svg>