<svg xmlns="http://www.w3.org/2000/svg" version="1.1" id="Layer_1" x="0px" y="0px" viewBox="0 0 500 500" style="enable-background:new 0 0 500 500;"> <style type="text/css"> .st0{fill:#ffff;} .st1{fill:#45BBC6;} .st2{fill:#F5F5CD;} .st3{fill:#FFFFFF;} .st4{opacity:0.8;} .st5{fill:#F86B00;} .st6{fill:#43484D;} .st7{fill:#FFBD35;} .st8{fill:#B2B4B6;} .st9{fill:#DE3F18;} .st10{opacity:0.6;} .st11{fill:#D1D3D4;} </style> <rect class="st0" width="500" height="500"/> <g id="illustration_9_"> <g> <g> <path class="st1" d="M380.2,303.9c0-63.9-51.8-115.7-115.7-115.7c-63.9,0-115.7,51.8-115.7,115.7c0,63.9,51.8,115.7,115.7,115.7 C328.4,419.6,380.2,367.8,380.2,303.9z"/> </g> <g> <g> <path class="st2" d="M190.9,311.7c0,0,0.2,10.5,6.2,17.1c8.6,9.4,1.7,4,14.5,13.7c9.3,7.1,2.6,12.7,11.9,19 c5.9,4,13.8,19.1,19.7,1.9c0.8-2.3,0.6-13.8,0.4-19c-0.8,2.7-0.7,2.7-0.2-2.4c0-0.3,0.1,0.7,0.2,2.4c1.6-5.8,6.8-24.2,18-32.7 c16.3-12.5,0-19.6,0-26.7c0-7.1-11.7-15.5-34.4-23.1c-10.5-3.5-8.8-27.2,5.7-19.1c14.5,8.1,42.8,1.7,28-8.1 c-13.5-9-5.7-20.5,0.2-26.5c-2.2-0.2-4.4-0.3-6.6-0.3c-47.2,0-85.4,38.3-85.4,85.4c0,12.6,2.8,24.6,7.7,35.4 C181.2,328.4,185.7,323.1,190.9,311.7z"/> </g> <g> <path class="st2" d="M310.9,249.8c-15.7,7.9-23.5,15.7-17.7,23.5c5.9,7.8,5.9,9.8,13.7,11.8c7.9,2,21.6-2,29.4,3.9 c7.9,5.9,13.7-3.9,7.9,5.9c-5.9,9.8-3.9,5.9-19.6,9.8c-15.7,3.9-11.8-9.8-15.7,3.9c-3.9,13.7-11.8,9.8-5.9,25.5 c5.9,15.7,21.6,27.5,21.6,27.5l1.7,20.5c21.9-16.3,36-42.4,36-71.8c0-30-14.8-56.6-37.4-72.8C323.1,241,319.2,245.7,310.9,249.8 z"/> </g> </g> </g> <g> <path class="st3" d="M402,152.9C407.3,154,407.3,154,402,152.9c5.6-0.5,7.2-1.6,9.8-6.5c-1.1,5.3-1.1,5.3,0,0 c0.5,5.6,1.6,7.2,6.5,9.8c-5.3-1.1-5.3-1.1,0,0c-5.6,0.5-7.2,1.6-9.8,6.5c1.1-5.3,1.1-5.3,0,0C408.1,157.1,407,155.6,402,152.9z"/> </g> <g> <path class="st3" d="M345.3,184.6C348.9,185.3,348.9,185.3,345.3,184.6c3.8-0.4,4.9-1.1,6.7-4.4c-0.7,3.6-0.7,3.6,0,0 c0.4,3.8,1.1,4.9,4.4,6.7c-3.6-0.7-3.6-0.7,0,0c-3.8,0.4-4.9,1.1-6.7,4.4c0.7-3.6,0.7-3.6,0,0 C349.4,187.4,348.7,186.4,345.3,184.6z"/> </g> <g> <path class="st3" d="M123.3,372.5C124.8,372.9,124.8,372.9,123.3,372.5c1.6-0.2,2.1-0.5,2.9-1.9c-0.3,1.5-0.3,1.5,0,0 c0.2,1.6,0.5,2.1,1.9,2.9c-1.5-0.3-1.5-0.3,0,0c-1.6,0.2-2.1,0.5-2.9,1.9c0.3-1.5,0.3-1.5,0,0C125,373.8,124.7,373.3,123.3,372.5z "/> </g> <g> <path class="st3" d="M102.5,273.3C104.1,273.6,104.1,273.6,102.5,273.3c1.6-0.2,2.1-0.5,2.9-1.9c-0.3,1.5-0.3,1.5,0,0 c0.2,1.6,0.5,2.1,1.9,2.9c-1.5-0.3-1.5-0.3,0,0c-1.6,0.2-2.1,0.5-2.9,1.9c0.3-1.5,0.3-1.5,0,0C104.3,274.6,104,274.1,102.5,273.3z "/> </g> <g> <path class="st3" d="M424,359.7C425.6,360,425.6,360,424,359.7c1.6-0.2,2.1-0.5,2.9-1.9c-0.3,1.5-0.3,1.5,0,0 c0.2,1.6,0.5,2.1,1.9,2.9c-1.5-0.3-1.5-0.3,0,0c-1.6,0.2-2.1,0.5-2.9,1.9c0.3-1.5,0.3-1.5,0,0C425.8,360.9,425.5,360.5,424,359.7z "/> </g> <g> <path class="st3" d="M337,435.1C338.2,435.4,338.2,435.4,337,435.1c1.2-0.1,1.6-0.3,2.2-1.4c-0.2,1.2-0.2,1.2,0,0 c0.1,1.2,0.3,1.6,1.4,2.2c-1.2-0.2-1.2-0.2,0,0c-1.2,0.1-1.6,0.3-2.2,1.4c0.2-1.2,0.2-1.2,0,0C338.3,436,338.1,435.7,337,435.1z"/> </g> <g class="st4"> <g> <g> <g> <path class="st3" d="M447.8,216.4c0.6-0.3,0.8-0.9,0.5-1.5c-0.3-0.6-0.9-0.8-1.5-0.5l-8.2,3.9c-0.6,0.3-0.8,0.9-0.5,1.5 c0.2,0.4,0.6,0.6,1,0.6c0.2,0,0.4,0,0.5-0.1L447.8,216.4z"/> </g> <g> <path class="st3" d="M439.2,221L439.2,221c-0.7,0-1.3-0.4-1.6-1c-0.4-0.9,0-1.9,0.8-2.4l8.2-3.9c0.9-0.4,2,0,2.4,0.8 c0.4,0.9,0,1.9-0.8,2.4l-8.2,3.9C439.7,220.9,439.4,221,439.2,221z M447.4,214.9c-0.1,0-0.1,0-0.2,0l-8.2,3.9 c-0.2,0.1-0.3,0.4-0.2,0.6c0.1,0.2,0.2,0.3,0.4,0.3l0,0.6v-0.6c0.1,0,0.1,0,0.2,0l8.2-3.9c0.2-0.1,0.3-0.4,0.2-0.6 C447.7,215,447.5,214.9,447.4,214.9z"/> </g> </g> <g> <g> <path class="st3" d="M450.5,224.9l-9-1.1c-0.6-0.1-1.2,0.4-1.3,1c-0.1,0.6,0.4,1.2,1,1.3l9,1.1c0,0,0.1,0,0.1,0 c0.6,0,1.1-0.4,1.2-1C451.6,225.5,451.2,225,450.5,224.9z"/> </g> <g> <path class="st3" d="M450.4,227.8L450.4,227.8l-9.2-1.1c-1-0.1-1.7-1-1.5-2c0.1-0.9,0.9-1.6,1.8-1.6l0.2,0l9,1.1 c1,0.1,1.7,1,1.5,2C452.1,227.1,451.3,227.8,450.4,227.8z M441.5,224.4c-0.3,0-0.5,0.2-0.5,0.4c0,0.3,0.2,0.5,0.4,0.5l9.1,1.1 c0.2,0,0.4-0.2,0.5-0.4c0-0.3-0.2-0.5-0.4-0.5L441.5,224.4L441.5,224.4z"/> </g> </g> <g> <g> <path class="st3" d="M442.1,205.8c-0.5-0.3-1.2-0.2-1.6,0.3l-4.9,7.6c-0.3,0.5-0.2,1.2,0.3,1.6c0.2,0.1,0.4,0.2,0.6,0.2 c0.4,0,0.8-0.2,1-0.5l4.9-7.6C442.7,206.8,442.6,206.1,442.1,205.8z"/> </g> <g> <path class="st3" d="M436.5,216.1L436.5,216.1L436.5,216.1c-0.4,0-0.7-0.1-1-0.3c-0.4-0.3-0.7-0.7-0.8-1.1 c-0.1-0.5,0-0.9,0.2-1.3l4.9-7.6c0.5-0.8,1.7-1,2.5-0.5c0.4,0.3,0.7,0.7,0.8,1.1c0.1,0.5,0,0.9-0.2,1.3l-5,7.6 C437.6,215.8,437.1,216.1,436.5,216.1z M441.4,206.3c-0.2,0-0.3,0.1-0.4,0.2l-5,7.6c-0.1,0.1-0.1,0.2-0.1,0.4 c0,0.1,0.1,0.2,0.2,0.3c0.1,0,0.2,0.1,0.2,0.1l0,0.6v-0.6l0,0c0.2,0,0.3-0.1,0.4-0.2l4.9-7.6c0.1-0.1,0.1-0.2,0.1-0.4 c0-0.1-0.1-0.2-0.2-0.3C441.6,206.3,441.5,206.3,441.4,206.3z"/> </g> </g> </g> <g> <path class="st3" d="M422.3,205l8.4,18.3l7.9,17.2l-3.4,1.6l-1-2.1l-0.4-0.9l-1,0.1l-10.5,1.6l-1.3,0.2l0.2,1.3 c0.4,2.8-0.3,6.3-3.5,7.8l-6.3,2.9c-0.5,0.2-1,0.3-1.5,0.3l-0.1,0c-0.4,0-0.7-0.1-1.1-0.2c-0.9-0.3-1.6-1-2-1.8l-3.1-6.7 l-0.4-0.9l-1,0.1l-4,0.6l-0.6-1.2l-1.3,1.1l-2.9,2.4l-2.2-4.8l-2.6-5.6l3.7-0.6l1.7-0.3l-0.7-1.6l-0.1-0.2l26.3-22.9l0.7-0.6 l-0.4-0.9l-1.3-2.8L422.3,205L422.3,205z M422.9,203.3l-5.9,2.7l1.9,4l-27,23.6l0.5,1l-5.4,0.8l3.3,7.2l2.9,6.3l4.2-3.5l0.3,0.6 l4.9-0.8l3.1,6.7c0.5,1.2,1.5,2.1,2.7,2.5c0.5,0.2,1,0.3,1.5,0.3l0,0c0.1,0,0.1,0,0.2,0c0.7,0,1.4-0.2,2-0.5l6.3-2.9 c3.6-1.7,4.8-5.5,4.2-9.2l10.5-1.6l1.5,3.2l5.8-2.7l-8.5-18.4L422.9,203.3L422.9,203.3z"/> </g> <g> <path class="st3" d="M420.5,242.5c0.4,2.8-0.5,5.7-3,6.9l-6.3,2.9c-0.4,0.2-0.7,0.2-1.1,0.2c0,0-0.1,0-0.1,0v0 c-0.3,0-0.5-0.1-0.8-0.2c-0.7-0.2-1.2-0.7-1.5-1.4l-2.8-6.1L420.5,242.5L420.5,242.5z M421.6,241l-1.3,0.2l-15.7,2.4l-1.7,0.3 l0.7,1.6l2.8,6.1c0.4,1,1.2,1.7,2.2,2.1c0.4,0.1,0.8,0.2,1.2,0.2l0,0l0.1,0c0.6,0,1.2-0.1,1.7-0.4l6.3-2.9 c2.9-1.3,4.3-4.5,3.8-8.2L421.6,241L421.6,241z"/> </g> </g> <g> <polygon class="st2" points="246.9,190.2 255.1,190.2 259.8,171.7 251.6,171.7 "/> </g> <g> <polygon class="st2" points="282.6,190.2 274.5,190.2 269.8,171.7 277.9,171.7 "/> </g> <g> <ellipse transform="matrix(0.9735 -0.2286 0.2286 0.9735 -16.3494 63.2233)" class="st5" cx="264.7" cy="102.2" rx="62.3" ry="62.3"/> </g> <g> <ellipse transform="matrix(0.9735 -0.2288 0.2288 0.9735 -16.3585 63.2888)" class="st3" cx="264.7" cy="102.2" rx="49.9" ry="49.9"/> </g> <g> <path class="st5" d="M302.1,102.2c0-20.6-16.7-37.4-37.4-37.4c-20.6,0-37.4,16.7-37.4,37.4s16.7,37.4,37.4,37.4 C285.4,139.6,302.1,122.8,302.1,102.2z"/> </g> <g> <circle class="st3" cx="264.7" cy="102.2" r="27.6"/> </g> <g> <path class="st5" d="M273.9,102.2c0-5.1-4.1-9.2-9.2-9.2c-5.1,0-9.2,4.1-9.2,9.2c0,5.1,4.1,9.2,9.2,9.2 C269.8,111.4,273.9,107.3,273.9,102.2z"/> </g> <g> <g> <g> <path class="st6" d="M157.5,168.4c26.4-24.7,52.5-46.5,86.2-60.6c-0.4-2-0.7-3.1-1.1-5.1c-34.5,13.8-62.4,35.7-89.4,60.6 C154.9,165.3,155.8,166.4,157.5,168.4z"/> </g> <g> <g> <path class="st6" d="M252.4,101.7c-4.7-2-7.1-3-11.7-4.7c1.3,6.2,2.2,10.1,3.5,16.3C247.7,108.5,249.3,106.1,252.4,101.7z"/> </g> <g> <path class="st7" d="M149.9,149.7c-3.8,3.5-5.7,5.3-9.3,9c4.8,0,8.2,0.9,14.3,2.7c3.5-3.5,5.2-5.1,8.8-8.4 C157.8,151.1,154.6,150,149.9,149.7z"/> </g> <g> <path class="st7" d="M167.7,158.3c-3.4,3.2-5.1,4.9-8.4,8.3c1,6.7,1.7,10.1,1,14.7c3.1-3.5,4.6-5.1,7.7-8.4 C168.9,168.2,168.3,164.9,167.7,158.3z"/> </g> <g> <path class="st5" d="M156.4,143.9c-3.8,3.3-5.8,5.1-9.5,8.6c4.8,0.2,8,1.2,14,3.1c3.5-3.3,5.3-4.9,8.9-8 C164.1,145.5,161,144.4,156.4,143.9z"/> </g> <g> <path class="st5" d="M173.4,153c-3.4,3.1-5.1,4.6-8.5,7.9c0.8,6.6,1.4,10,0.5,14.7c3.1-3.3,4.6-4.9,7.8-8 C174.2,162.8,173.8,159.5,173.4,153z"/> </g> </g> <g> <path class="st8" d="M109.8,203.2c8-12.4,12.4-18.2,21.9-29.1c0.5-0.6,0.5-1.5,0.1-2l0,0c-0.5-0.5-1.2-0.4-1.8,0.2 c-9.5,10.9-14,16.8-21.9,29.2c-0.4,0.7-0.4,1.6,0,2l0,0C108.6,204,109.4,203.9,109.8,203.2z"/> </g> <g> <path class="st8" d="M112.5,220.8c7.8-12.9,12-18.9,20.8-30.1c0.5-0.6,0.3-1.6-0.3-2.3l0,0c-0.7-0.6-1.6-0.7-2.1,0 c-8.9,11.2-13.1,17.3-20.8,30.1c-0.4,0.7-0.2,1.8,0.4,2.4l0,0C111.2,221.6,112.1,221.5,112.5,220.8z"/> </g> <g> <path class="st8" d="M129.4,216.2c6.7-9.7,10.1-14.3,17-22.9c0.4-0.5,0.5-1.3,0.1-1.7c-0.1-0.1-0.1-0.1-0.2-0.2 c-0.4-0.4-1.1-0.4-1.6,0.1c-6.9,8.6-10.3,13.2-17,23c-0.4,0.6-0.4,1.5,0.1,1.9c0.1,0.1,0.1,0.1,0.2,0.2 C128.4,217,129,216.8,129.4,216.2z"/> </g> </g> </g> <g> <g> <path class="st3" d="M207.1,416c0,0-6.2,0.2-9,3c-4.5-1.3-16.5-3.2-23.9-0.9c-7.4,2.3-10.1,9.7-10.7,16.5 c-0.5,6.8-0.9,11.5,2.5,16c3.4,4.6,8,5.9,13.3,6.9c5.3,1.1,23.4,4.3,28.7-5.3c5.3-9.7,6-24.2-1.8-29.8 C206,421.9,205.1,420.2,207.1,416z"/> </g> <g> <g> <g> <path class="st9" d="M180.8,438.1c-0.2,1.9-2,3.3-3.9,3.1c-1.9-0.2-3.3-2-3.1-3.9c0.2-1.9,2-3.3,3.9-3.1 C179.6,434.4,181,436.1,180.8,438.1z"/> </g> </g> <g> <g> <path class="st9" d="M191,439.2c-0.2,1.9-2,3.3-3.9,3.1s-3.3-2-3.1-3.9c0.2-1.9,2-3.3,3.9-3.1 C189.8,435.5,191.2,437.2,191,439.2z"/> </g> </g> <g> <g> <path class="st9" d="M201.2,440.3c-0.2,1.9-2,3.3-3.9,3.1c-1.9-0.2-3.3-2-3.1-3.9c0.2-1.9,2-3.3,3.9-3.1 C200,436.6,201.4,438.4,201.2,440.3z"/> </g> </g> </g> </g> <g class="st10"> <g> <path class="st3" d="M94.7,380.2L94.7,380.2c-5.1,0-9.6-3.2-11.3-8c-0.2-0.6-0.4-1.2-0.5-1.8l-15.1-4.6c-1.4,2.2-3.5,3.9-6,4.7 c-1.3,0.4-2.6,0.7-3.9,0.7c-5.1,0-9.6-3.2-11.3-8c-2.2-6.2,1.1-13,7.3-15.2c1.8-0.6,3.8-0.8,5.7-0.5l10.1-14.7 c-0.6-0.8-1-1.6-1.2-2.5c-1.1-3-0.9-6.2,0.5-9.1c1.4-2.9,3.8-5,6.8-6.1c1.3-0.4,2.6-0.7,3.9-0.7c5.1,0,9.6,3.2,11.3,8 c1.1,3,0.9,6.2-0.5,9.1c-1.4,2.9-3.8,5-6.8,6.1c-1.8,0.6-3.7,0.8-5.6,0.5L68.1,353c0.5,0.8,0.9,1.6,1.2,2.3 c0.1,0.2,0.1,0.3,0.1,0.5l16.1,4.8c1.4-1.7,3.2-3,5.3-3.7c1.3-0.4,2.6-0.7,3.9-0.7c5.1,0,9.6,3.2,11.3,8c1.1,3,0.9,6.2-0.5,9.1 c-1.4,2.9-3.8,5-6.8,6.1C97.4,379.9,96,380.2,94.7,380.2z M66.9,363.2l18.1,5.5l0.1,0.7c0.1,0.7,0.2,1.4,0.5,2.1 c1.4,3.9,5.1,6.5,9.2,6.5h0c1.1,0,2.2-0.2,3.2-0.5c2.5-0.9,4.4-2.6,5.6-5c1.1-2.3,1.3-5,0.4-7.5c-1.4-3.9-5.1-6.5-9.2-6.5 c-1.1,0-2.2,0.2-3.2,0.5c-1.9,0.7-3.5,1.9-4.7,3.5l-0.5,0.6l-18.8-5.6l-0.2-1c0-0.2-0.1-0.3-0.1-0.5c-0.3-0.8-0.7-1.6-1.3-2.4 l-0.4-0.6l11.8-17.2l0.7,0.1c1.8,0.4,3.5,0.2,5.1-0.3c2.5-0.9,4.4-2.6,5.6-5c1.1-2.3,1.3-5,0.4-7.4c-1.4-3.9-5.1-6.5-9.2-6.5 c-1.1,0-2.2,0.2-3.2,0.5c-2.5,0.9-4.4,2.6-5.6,5c-1.1,2.3-1.3,5-0.4,7.4c0.3,0.8,0.7,1.6,1.4,2.5l0.5,0.6l-11.8,17.1l-0.7-0.2 c-1.8-0.4-3.6-0.3-5.3,0.3c-5.1,1.8-7.8,7.3-6,12.4c1.4,3.9,5.1,6.5,9.2,6.5c1.1,0,2.2-0.2,3.2-0.5c2.2-0.8,4.1-2.4,5.3-4.5 L66.9,363.2z"/> </g> </g> <g> <g> <g> <rect x="403.5" y="390.8" transform="matrix(0.9536 0.301 -0.301 0.9536 140.6096 -105.5034)" class="st11" width="18.5" height="25.6"/> </g> <g> <polygon class="st11" points="396.1,425.3 413.8,430.9 412.1,421.2 403.1,418.4 "/> </g> <g> <g> <rect x="397.2" y="387.1" transform="matrix(0.301 -0.9536 0.9536 0.301 -92.7915 654.7369)" class="st1" width="6" height="7.2"/> </g> <g> <rect x="388.8" y="384.4" transform="matrix(0.301 -0.9536 0.9536 0.301 -96.1317 644.8759)" class="st1" width="6" height="7.2"/> </g> <g> <rect x="380.4" y="381.8" transform="matrix(0.301 -0.9536 0.9536 0.301 -99.4835 634.9931)" class="st1" width="6" height="7.2"/> </g> <g> <rect x="395" y="394.2" transform="matrix(0.301 -0.9536 0.9536 0.301 -101.1529 657.5851)" class="st1" width="6" height="7.2"/> </g> <g> <rect x="386.6" y="391.5" transform="matrix(0.3011 -0.9536 0.9536 0.3011 -104.5225 647.6672)" class="st1" width="6" height="7.2"/> </g> <g> <rect x="378.2" y="388.9" transform="matrix(0.301 -0.9536 0.9536 0.301 -107.8511 637.829)" class="st1" width="6" height="7.2"/> </g> <g> <rect x="392.7" y="401.3" transform="matrix(0.301 -0.9536 0.9536 0.301 -109.5207 660.4214)" class="st1" width="6" height="7.2"/> </g> <g> <rect x="384.3" y="398.7" transform="matrix(0.301 -0.9536 0.9536 0.301 -112.8725 650.5381)" class="st1" width="6" height="7.2"/> </g> <g> <rect x="375.9" y="396" transform="matrix(0.301 -0.9536 0.9536 0.301 -116.2131 640.6772)" class="st1" width="6" height="7.2"/> </g> </g> <g> <g> <rect x="443.9" y="401.8" transform="matrix(0.3011 -0.9536 0.9536 0.3011 -74.244 709.4857)" class="st1" width="6" height="7.2"/> </g> <g> <rect x="435.5" y="399.1" transform="matrix(0.301 -0.9536 0.9536 0.301 -77.5685 699.6503)" class="st1" width="6" height="7.2"/> </g> <g> <rect x="427.1" y="396.5" transform="matrix(0.301 -0.9536 0.9536 0.301 -80.9082 689.7897)" class="st1" width="6" height="7.2"/> </g> <g> <rect x="441.6" y="408.9" transform="matrix(0.301 -0.9536 0.9536 0.301 -82.5904 712.3585)" class="st1" width="6" height="7.2"/> </g> <g> <rect x="433.2" y="406.3" transform="matrix(0.301 -0.9536 0.9536 0.301 -85.9298 702.4982)" class="st1" width="6" height="7.2"/> </g> <g> <rect x="424.8" y="403.6" transform="matrix(0.301 -0.9536 0.9536 0.301 -89.2823 692.6144)" class="st1" width="6" height="7.2"/> </g> <g> <rect x="439.4" y="416.1" transform="matrix(0.301 -0.9536 0.9536 0.301 -90.9722 715.1688)" class="st1" width="6" height="7.2"/> </g> <g> <rect x="431" y="413.4" transform="matrix(0.3011 -0.9536 0.9536 0.3011 -94.3243 705.2854)" class="st1" width="6" height="7.2"/> </g> <g> <rect x="422.6" y="410.7" transform="matrix(0.301 -0.9536 0.9536 0.301 -97.6501 695.4505)" class="st1" width="6" height="7.2"/> </g> </g> </g> <g> <rect x="412.7" y="380.3" transform="matrix(0.9536 0.301 -0.301 0.9536 135.2751 -108.0542)" class="st11" width="11.2" height="9.3"/> </g> </g> </g> </svg>